<svg width="36" height="36" viewBox="0 0 36 36" fill="none" xmlns="http://www.w3.org/2000/svg">
<path d="M18 36C35.8613 36 36 27.9412 36 18C36 8.05875 35.8613 0 18 0C0.13875 0 0 8.05875 0 18C0 27.9412 0.13875 36 18 36Z" fill="url(#paint0_linear)"/>
<path fill-rule="evenodd" clip-rule="evenodd" d="M22.8411 8.25001H13.592C12.2985 8.25001 11.25 9.27712 11.25 10.5441V26.6029C11.25 27.2364 11.7743 27.75 12.421 27.75C12.9956 27.75 13.535 27.474 13.8695 27.0086L24.7561 11.865C25.8487 10.3451 24.7389 8.25001 22.8411 8.25001ZM23.1538 27.75C25.0471 27.75 26.158 25.6637 25.0744 24.1429C23.8789 22.465 23.0987 21.2187 21.9375 19.5511C21.6965 19.2051 20.8438 19.2061 20.6015 19.5511L15.5128 26.8112C15.2336 27.2089 15.4385 27.75 15.9258 27.75L23.1538 27.75Z" fill="white"/>
<defs>
<linearGradient id="paint0_linear" x1="3.27273" y1="6.78506e-07" x2="29.8396" y2="40.6203" gradientUnits="userSpaceOnUse">
<stop stop-color="#A62EF0"/>
<stop offset="1" stop-color="#071021"/>
</linearGradient>
</defs>
</svg>
