<?xml version="1.0" encoding="iso-8859-1"?>
<!-- Generator: Adobe Illustrator 19.0.0, SVG Export Plug-In . SVG Version: 6.00 Build 0)  -->
<svg version="1.1" id="Capa_1" xmlns="http://www.w3.org/2000/svg" xmlns:xlink="http://www.w3.org/1999/xlink" x="0px" y="0px"
	 viewBox="0 0 512 512" style="enable-background:new 0 0 512 512;" xml:space="preserve">
<path style="fill:#F0EFEB;" d="M512,256c0,73.477-30.96,139.724-80.541,186.399C385.63,485.564,323.908,512,256,512
	c-67.26,0-128.46-25.934-174.143-68.368C31.504,396.894,0,330.125,0,256C0,114.615,114.615,0,256,0S512,114.615,512,256z"/>
<path style="fill:#E71600;" d="M484.456,296.061c-0.073,55.808-19.947,106.789-52.997,146.338C385.63,485.564,323.908,512,256,512
	c-67.26,0-128.46-25.934-174.143-68.368c-33.886-39.852-54.324-91.47-54.324-147.864c0-31.18,6.248-60.938,17.554-88.001
	c-24.022,97.959,13.183,177.838,98.761,182.959c118.157,7.032,172.495-78.312,172.495-78.312l5.966-9.164l-2.372,41.524
	c-0.836,14.796,10.47,27.449,25.266,28.296c0.512,0.063,1.066,0.063,1.578,0.063c14.127,0,25.934-11.034,26.781-25.318l5.35-94.02
	c0.449-7.377-2.194-14.576-7.262-19.926c-5.068-5.392-12.152-8.432-19.529-8.432h-93.414c-15.057,0-27.732,12.33-27.429,27.387
	c0.293,14.597,12.215,26.342,26.833,26.342h40.897c-20.762,23.636-70.666,66.79-149.326,50.354
	c-93.915-19.571-70.353-185.334,48.347-248.78c0.449-0.251,1.003-0.522,1.63-0.836c15.6-7.774,32.737-12.016,50.166-12.487
	c2.058-0.063,4.127-0.084,6.196-0.084C382.265,67.333,484.624,169.775,484.456,296.061z"/>
<g>
</g>
<g>
</g>
<g>
</g>
<g>
</g>
<g>
</g>
<g>
</g>
<g>
</g>
<g>
</g>
<g>
</g>
<g>
</g>
<g>
</g>
<g>
</g>
<g>
</g>
<g>
</g>
<g>
</g>
</svg>
