<svg width="88" height="88" viewBox="0 0 88 88" fill="none" xmlns="http://www.w3.org/2000/svg">
<circle cx="44" cy="44" r="44" fill="#007AFF"/>
<path fill-rule="evenodd" clip-rule="evenodd" d="M27.1917 41.0135H23.0521C23.0521 40.3353 22.9722 39.8806 22.8137 39.6489C22.5671 39.3061 21.8872 39.1347 20.7744 39.1347C19.6934 39.1347 18.9775 39.2334 18.6278 39.4308C18.2781 39.6291 18.1031 40.0599 18.1031 40.7236C18.1031 41.3245 18.2583 41.7197 18.5687 41.9093C18.7909 42.0439 19.0851 42.1232 19.4514 42.1468L20.2861 42.2054C22.0751 42.324 23.1928 42.4078 23.6385 42.4549C25.0534 42.5974 26.0793 42.9728 26.7153 43.5816C27.2165 44.0561 27.5149 44.6764 27.6105 45.443C27.6659 45.9014 27.6936 46.4201 27.6936 46.9963C27.6936 48.3245 27.5666 49.2976 27.3125 49.9138C26.8515 51.045 25.8161 51.7595 24.205 52.0597C23.5301 52.1865 22.4976 52.2501 21.1088 52.2501C18.7905 52.2501 17.1749 52.1122 16.2628 51.8355C15.1434 51.4964 14.4051 50.8092 14.048 49.775C13.8489 49.1988 13.75 48.2398 13.75 46.8976H17.8896C17.8896 47.0471 17.8904 47.1615 17.8904 47.2408C17.8904 47.9569 18.0965 48.4179 18.5082 48.6227C18.7938 48.7644 19.1385 48.8387 19.5432 48.8474H21.0653C21.8416 48.8474 22.3374 48.8077 22.5514 48.728C22.9317 48.5789 23.1816 48.3386 23.3008 48.0057C23.3641 47.8008 23.3956 47.5361 23.3956 47.2115C23.3956 46.485 23.1299 46.0431 22.5994 45.8845C22.4012 45.8221 21.4783 45.7346 19.8304 45.6239C18.5074 45.5301 17.5883 45.4393 17.0739 45.3513C15.7186 45.0985 14.8156 44.5777 14.3645 43.7881C13.9685 43.1169 13.7703 42.1013 13.7703 40.743C13.7703 39.7084 13.8775 38.8791 14.0914 38.255C14.3058 37.631 14.6509 37.1572 15.1272 36.833C15.825 36.3358 16.718 36.0434 17.8047 35.9562C18.7094 35.8773 19.7125 35.8373 20.8162 35.8373C22.5534 35.8373 23.7916 35.9372 24.5299 36.1346C26.3313 36.6179 27.2318 37.9709 27.2318 40.1941C27.2318 40.3766 27.2186 40.6492 27.1917 41.0135Z" fill="white"/>
<path fill-rule="evenodd" clip-rule="evenodd" d="M49.848 44.1625H52.6223C53.5017 44.1307 54.0363 44.063 54.2292 43.9573C54.492 43.8131 54.6687 43.5244 54.7564 43.0912C54.8127 42.8025 54.8408 42.3738 54.8408 41.8043C54.8408 41.1063 54.785 40.5888 54.6728 40.2514C54.5127 39.7776 54.1295 39.4894 53.5224 39.3849C53.4024 39.3692 53.1147 39.3605 52.6595 39.3605H49.848V44.1625ZM45.3984 52.25V35.75H53.6887C54.8255 35.75 55.6933 35.8429 56.2892 36.0275C57.6528 36.4542 58.5678 37.3273 59.0363 38.6464C59.2784 39.339 59.3992 40.3814 59.3992 41.7737C59.3992 43.4472 59.2651 44.6499 58.9994 45.3821C58.4677 46.8305 57.3731 47.6644 55.7206 47.8804C55.5261 47.913 54.6993 47.9419 53.2397 47.9651L52.501 47.9898H49.848V52.25H45.3984Z" fill="white"/>
<path fill-rule="evenodd" clip-rule="evenodd" d="M68.0113 46.1838L65.9264 39.0317L63.9036 46.1838H68.0113ZM68.8952 49.3982H62.946L62.1464 52.25H57.543L62.5102 35.75H69.2225L74.251 52.25H69.744L68.8952 49.3982Z" fill="white"/>
<path fill-rule="evenodd" clip-rule="evenodd" d="M39.2514 38.0714C41.0867 38.0714 42.7247 38.9152 43.801 40.2364L44.7603 38.1842C43.2602 36.7692 41.2187 35.897 38.9667 35.897C35.4607 35.897 32.4616 38.0103 31.2305 41.0017H29.3604L28.2559 43.3645H30.6619C30.6441 43.5838 30.6325 43.8031 30.6325 44.0266C30.6325 44.2975 30.6462 44.5651 30.673 44.8299H29.4638L28.3597 47.1931H31.288C32.5539 50.1089 35.5157 52.1558 38.9667 52.1558C40.706 52.1558 42.3199 51.6358 43.6562 50.7474V47.8506C42.5798 49.0735 41.006 49.8462 39.2514 49.8462C37.2004 49.8462 35.3961 48.7906 34.3454 47.1931H40.4771L41.5817 44.8299H33.4432C33.4014 44.5453 33.3791 44.2546 33.3791 43.9584C33.3791 43.7581 33.3894 43.5603 33.4085 43.3645H42.2657L43.3698 41.0017H34.1745C35.1917 39.2502 37.0841 38.0714 39.2514 38.0714Z" fill="white"/>
</svg>
