<?xml version="1.0" encoding="UTF-8"?><!DOCTYPE svg PUBLIC "-//W3C//DTD SVG 1.1//EN" "http://www.w3.org/Graphics/SVG/1.1/DTD/svg11.dtd"><svg xmlns="http://www.w3.org/2000/svg" xmlns:xlink="http://www.w3.org/1999/xlink" version="1.1" id="Layer_1" x="0px" y="0px" width="512px" height="512px" viewBox="0 0 512 512" xml:space="preserve"><path fill="#862165" d="M7.9 256C7.9 119 119 7.9 256 7.9S504.1 119 504.1 256 393 504.1 256 504.1 7.9 393 7.9 256z"/><path fill="#FFF" d="M363.7 197.5l31.8-5.7v122h-31.8V197.5zm46.4 0v116.3h31.8v-122l-31.8 5.7zm-91.7 116.3h31.8v-89.2h-31.8v89.2zm-210.1-76.6c-4-.3-13.3-.9-13.3-9.2 0-10.1 13.4-10.1 18.4-10.1 8.8 0 20.3 2.6 28.4 5.1 0 0 4.6 1.6 8.4 3.2l.4.1v-27.7l-.5-.1c-9.6-3.4-20.9-6.6-41.6-6.6-35.8 0-48.5 20.9-48.5 38.8 0 10.3 4.4 34.6 45.5 37.4 3.5.2 12.7.7 12.7 9.4 0 7.1-7.6 11.4-20.3 11.4-13.9 0-27.5-3.5-35.7-6.9v28.5c12.3 3.2 26.1 4.8 42.4 4.8 35 0 50.7-19.7 50.7-39.3 0-22.4-17.5-36.8-47-38.8zm192.2-13.9c-29.4.9-44.3 14.1-44.3 40.3v50.2h32.1v-40.9c0-15.7 2.1-22.4 20.7-23.1v-26.1c-3.2-.6-8.5-.4-8.5-.4zm-86.3 1.2c-.7 1.8-5.8 16.2-18.1 31.1v-63.7l-32.8 6.5v115.5h32.8v-35.7c9.5 14.2 14.2 35.7 14.2 35.7h39.3c-3.9-16.2-20.9-46-20.9-46 15.3-19.3 22-40 23-43.4h-37.5zm120.1-8.5c8.7 0 15.7-7 15.7-15.7s-7-15.7-15.7-15.7c-8.6 0-15.7 7-15.7 15.7s7 15.7 15.7 15.7z"/><metadata><rdf:RDF xmlns:rdf="http://www.w3.org/1999/02/22-rdf-syntax-ns#" xmlns:rdfs="http://www.w3.org/2000/01/rdf-schema#" xmlns:dc="http://purl.org/dc/elements/1.1/"><rdf:Description about="https://iconscout.com/legal#licenses" dc:title="skrill" dc:description="skrill" dc:publisher="Iconscout" dc:date="2018-03-26" dc:format="image/svg+xml" dc:language="en"><dc:creator><rdf:Bag><rdf:li>Roundicons.com</rdf:li></rdf:Bag></dc:creator></rdf:Description></rdf:RDF></metadata></svg>