<?xml version="1.0" encoding="utf-8"?>
<!-- Generator: Adobe Illustrator 21.0.0, SVG Export Plug-In . SVG Version: 6.00 Build 0)  -->
<svg version="1.1" id="Layer_1" xmlns="http://www.w3.org/2000/svg" xmlns:xlink="http://www.w3.org/1999/xlink" x="0px" y="0px"
	 viewBox="0 0 3500 3500.1" style="enable-background:new 0 0 3500 3500.1;" xml:space="preserve">
<style type="text/css">
	.st0{clip-path:url(#SVGID_181_);}
	.st1{clip-path:url(#SVGID_182_);}
	.st2{clip-path:url(#SVGID_183_);}
	.st3{clip-path:url(#SVGID_184_);}
	.st4{clip-path:url(#SVGID_185_);}
	.st5{clip-path:url(#SVGID_186_);}
	.st6{clip-path:url(#SVGID_187_);}
	.st7{clip-path:url(#SVGID_188_);}
	.st8{clip-path:url(#SVGID_189_);}
	.st9{clip-path:url(#SVGID_190_);}
	.st10{clip-path:url(#SVGID_191_);}
	.st11{clip-path:url(#SVGID_192_);}
	.st12{clip-path:url(#SVGID_193_);}
	.st13{clip-path:url(#SVGID_194_);}
	.st14{clip-path:url(#SVGID_195_);}
	.st15{clip-path:url(#SVGID_196_);}
	.st16{clip-path:url(#SVGID_197_);}
	.st17{clip-path:url(#SVGID_198_);}
	.st18{clip-path:url(#SVGID_199_);}
	.st19{clip-path:url(#SVGID_200_);}
	.st20{clip-path:url(#SVGID_201_);}
	.st21{clip-path:url(#SVGID_202_);}
	.st22{clip-path:url(#SVGID_203_);}
	.st23{clip-path:url(#SVGID_204_);}
	.st24{clip-path:url(#SVGID_205_);}
	.st25{clip-path:url(#SVGID_206_);}
	.st26{clip-path:url(#SVGID_207_);}
	.st27{clip-path:url(#SVGID_208_);}
	.st28{clip-path:url(#SVGID_209_);}
	.st29{clip-path:url(#SVGID_210_);}
	.st30{clip-path:url(#SVGID_211_);}
	.st31{clip-path:url(#SVGID_212_);}
	.st32{clip-path:url(#SVGID_213_);}
	.st33{clip-path:url(#SVGID_214_);}
	.st34{clip-path:url(#SVGID_215_);}
	.st35{clip-path:url(#SVGID_216_);}
	.st36{clip-path:url(#SVGID_217_);}
	.st37{clip-path:url(#SVGID_218_);}
	.st38{clip-path:url(#SVGID_219_);}
	.st39{clip-path:url(#SVGID_220_);}
	.st40{clip-path:url(#SVGID_221_);}
	.st41{clip-path:url(#SVGID_222_);}
	.st42{clip-path:url(#SVGID_223_);}
	.st43{clip-path:url(#SVGID_224_);}
	.st44{clip-path:url(#SVGID_225_);}
	.st45{clip-path:url(#SVGID_226_);}
	.st46{clip-path:url(#SVGID_227_);}
	.st47{clip-path:url(#SVGID_228_);}
	.st48{clip-path:url(#SVGID_229_);}
	.st49{clip-path:url(#SVGID_230_);}
	.st50{clip-path:url(#SVGID_231_);}
	.st51{clip-path:url(#SVGID_232_);}
	.st52{clip-path:url(#SVGID_233_);}
	.st53{clip-path:url(#SVGID_234_);}
	.st54{clip-path:url(#SVGID_235_);}
	.st55{clip-path:url(#SVGID_236_);}
	.st56{clip-path:url(#SVGID_237_);}
	.st57{clip-path:url(#SVGID_238_);}
	.st58{clip-path:url(#SVGID_239_);}
	.st59{clip-path:url(#SVGID_240_);}
	.st60{clip-path:url(#SVGID_241_);}
	.st61{clip-path:url(#SVGID_242_);}
	.st62{clip-path:url(#SVGID_243_);}
	.st63{clip-path:url(#SVGID_244_);}
	.st64{clip-path:url(#SVGID_245_);}
	.st65{clip-path:url(#SVGID_246_);}
	.st66{clip-path:url(#SVGID_247_);}
	.st67{clip-path:url(#SVGID_248_);}
	.st68{clip-path:url(#SVGID_249_);}
	.st69{clip-path:url(#SVGID_250_);}
	.st70{clip-path:url(#SVGID_251_);}
	.st71{clip-path:url(#SVGID_252_);}
	.st72{clip-path:url(#SVGID_253_);}
	.st73{clip-path:url(#SVGID_254_);}
	.st74{clip-path:url(#SVGID_255_);}
	.st75{clip-path:url(#SVGID_256_);}
	.st76{clip-path:url(#SVGID_257_);}
	.st77{clip-path:url(#SVGID_258_);}
	.st78{clip-path:url(#SVGID_259_);}
	.st79{clip-path:url(#SVGID_260_);}
	.st80{clip-path:url(#SVGID_261_);}
	.st81{clip-path:url(#SVGID_262_);}
	.st82{clip-path:url(#SVGID_263_);}
	.st83{clip-path:url(#SVGID_264_);}
	.st84{clip-path:url(#SVGID_265_);}
	.st85{clip-path:url(#SVGID_266_);}
	.st86{clip-path:url(#SVGID_267_);}
	.st87{clip-path:url(#SVGID_268_);}
	.st88{clip-path:url(#SVGID_269_);}
	.st89{clip-path:url(#SVGID_270_);}
	.st90{clip-path:url(#SVGID_271_);}
	.st91{clip-path:url(#SVGID_272_);}
	.st92{clip-path:url(#SVGID_273_);}
	.st93{clip-path:url(#SVGID_274_);}
	.st94{clip-path:url(#SVGID_275_);}
	.st95{clip-path:url(#SVGID_276_);}
	.st96{clip-path:url(#SVGID_277_);}
	.st97{clip-path:url(#SVGID_278_);}
	.st98{clip-path:url(#SVGID_279_);}
	.st99{clip-path:url(#SVGID_280_);}
	.st100{clip-path:url(#SVGID_281_);}
	.st101{clip-path:url(#SVGID_282_);}
	.st102{clip-path:url(#SVGID_283_);}
	.st103{clip-path:url(#SVGID_284_);}
	.st104{clip-path:url(#SVGID_285_);}
	.st105{clip-path:url(#SVGID_286_);}
	.st106{clip-path:url(#SVGID_287_);}
	.st107{clip-path:url(#SVGID_288_);}
	.st108{clip-path:url(#SVGID_289_);}
	.st109{clip-path:url(#SVGID_290_);}
	.st110{clip-path:url(#SVGID_291_);}
	.st111{clip-path:url(#SVGID_292_);}
	.st112{clip-path:url(#SVGID_293_);}
	.st113{clip-path:url(#SVGID_294_);}
	.st114{clip-path:url(#SVGID_295_);}
	.st115{clip-path:url(#SVGID_296_);}
	.st116{clip-path:url(#SVGID_297_);}
	.st117{clip-path:url(#SVGID_298_);}
	.st118{clip-path:url(#SVGID_299_);}
	.st119{clip-path:url(#SVGID_300_);}
	.st120{clip-path:url(#SVGID_301_);}
	.st121{clip-path:url(#SVGID_302_);}
	.st122{clip-path:url(#SVGID_303_);}
	.st123{clip-path:url(#SVGID_304_);}
	.st124{clip-path:url(#SVGID_305_);}
	.st125{clip-path:url(#SVGID_306_);}
	.st126{clip-path:url(#SVGID_307_);}
	.st127{clip-path:url(#SVGID_308_);}
	.st128{clip-path:url(#SVGID_309_);}
	.st129{clip-path:url(#SVGID_310_);}
	.st130{clip-path:url(#SVGID_311_);}
	.st131{clip-path:url(#SVGID_312_);}
	.st132{clip-path:url(#SVGID_313_);}
	.st133{clip-path:url(#SVGID_314_);}
	.st134{clip-path:url(#SVGID_315_);}
	.st135{clip-path:url(#SVGID_316_);}
	.st136{clip-path:url(#SVGID_317_);}
	.st137{clip-path:url(#SVGID_318_);}
	.st138{clip-path:url(#SVGID_319_);}
	.st139{clip-path:url(#SVGID_320_);}
	.st140{clip-path:url(#SVGID_321_);}
	.st141{clip-path:url(#SVGID_322_);}
	.st142{clip-path:url(#SVGID_323_);}
	.st143{clip-path:url(#SVGID_324_);}
	.st144{clip-path:url(#SVGID_325_);}
	.st145{clip-path:url(#SVGID_326_);}
	.st146{clip-path:url(#SVGID_327_);}
	.st147{clip-path:url(#SVGID_328_);}
	.st148{clip-path:url(#SVGID_329_);}
	.st149{clip-path:url(#SVGID_330_);}
	.st150{clip-path:url(#SVGID_331_);}
	.st151{clip-path:url(#SVGID_332_);}
	.st152{clip-path:url(#SVGID_333_);}
	.st153{clip-path:url(#SVGID_334_);}
	.st154{clip-path:url(#SVGID_335_);}
	.st155{clip-path:url(#SVGID_336_);}
	.st156{clip-path:url(#SVGID_337_);}
	.st157{clip-path:url(#SVGID_338_);}
	.st158{clip-path:url(#SVGID_339_);}
	.st159{clip-path:url(#SVGID_340_);}
	.st160{clip-path:url(#SVGID_341_);}
	.st161{clip-path:url(#SVGID_342_);}
	.st162{clip-path:url(#SVGID_343_);}
	.st163{clip-path:url(#SVGID_344_);}
	.st164{clip-path:url(#SVGID_345_);}
	.st165{clip-path:url(#SVGID_346_);}
	.st166{clip-path:url(#SVGID_347_);}
	.st167{clip-path:url(#SVGID_348_);}
	.st168{clip-path:url(#SVGID_349_);}
	.st169{clip-path:url(#SVGID_350_);}
	.st170{clip-path:url(#SVGID_351_);}
	.st171{clip-path:url(#SVGID_352_);}
	.st172{clip-path:url(#SVGID_353_);}
	.st173{clip-path:url(#SVGID_354_);}
	.st174{clip-path:url(#SVGID_355_);}
	.st175{clip-path:url(#SVGID_356_);}
	.st176{clip-path:url(#SVGID_357_);}
</style>
<g>
	<g>
		<defs>
			<path id="SVGID_1_" d="M1750,0c966.5,0,1750,783.5,1750,1750s-783.5,1750-1750,1750S0,2716.5,0,1750S783.5,0,1750,0L1750,0z"/>
		</defs>
		<use xlink:href="#SVGID_1_"  style="overflow:visible;fill-rule:evenodd;clip-rule:evenodd;"/>
		<clipPath id="SVGID_2_">
			<use xlink:href="#SVGID_1_"  style="overflow:visible;"/>
		</clipPath>
	</g>
	<g>
		<defs>
			<polygon id="SVGID_3_" points="2016.4,1213.2 2069.9,1213.2 2069.9,1221.3 2033.3,1295.2 2020.2,1288.8 2050.8,1227.2 
				2016.4,1227.2 2016.4,1213.2 			"/>
		</defs>
		<defs>
			<polygon id="SVGID_4_" points="2078.6,1213.2 2132.1,1213.2 2132.1,1221.3 2095.5,1295.8 2082.5,1289.3 2112.5,1227.2 
				2078.6,1227.2 2078.6,1213.2 			"/>
		</defs>
		<defs>
			<path id="SVGID_5_" d="M2166.5,1211l13.1,6.5l-14.2,27.5c7.1,0,12.6,2.7,17.5,7.6c4.9,4.9,7.1,10.8,7.1,18.4c0,7-2.7,13-7.6,17.8
				c-4.9,4.9-10.9,7.6-18,7.6c-7.1,0-13.6-2.7-18.6-7.6c-4.9-4.9-7.1-10.8-7.1-17.3c0-2.7,0.5-4.9,1.1-7.6c0.5-2.7,2.7-6.5,5.5-11.9
				L2166.5,1211L2166.5,1211z"/>
		</defs>
		<defs>
			<path id="SVGID_6_" d="M2164.9,1259.1c-2.7,0-5.5,1.1-7.1,3.2c-2.2,2.2-2.7,4.9-2.7,7.6c0,3.2,1.1,5.9,3.3,7.6
				c2.2,2.2,4.4,3.2,7.1,3.2c2.7,0,5.5-1.1,7.6-3.2c2.2-2.2,3.3-4.9,3.3-8.1c0-3.2-1.1-5.9-3.3-7.6
				C2170.3,1260.2,2167.6,1259.1,2164.9,1259.1L2164.9,1259.1z"/>
		</defs>
		<defs>
			<path id="SVGID_7_" d="M2244.6,1249.9c3.8,2.2,6.6,5.4,8.7,9.2c2.2,3.8,3.3,7.6,3.3,11.9c0,4.9-1.1,9.2-3.3,13
				c-2.2,3.8-5.5,7-9.3,8.6c-3.8,2.2-8.7,3.2-15.3,3.2c-6.6,0-12-1.1-15.8-2.7c-3.8-2.2-7.1-4.9-9.3-8.6c-2.2-3.8-3.3-8.1-3.3-12.9
				c0-4.3,1.1-8.1,2.7-11.3c1.6-3.2,4.9-6.5,8.2-9.2c-2.2-2.7-4.4-4.9-5.5-7.6c-1.1-2.7-1.6-5.4-1.6-8.6c0-4.3,1.1-8.1,3.3-11.3
				c2.2-3.2,4.9-5.9,8.7-8.1c2.2-3.2,6.6-4.3,11.5-4.3c4.9,0,8.7,1.1,12.6,2.7c3.8,2.2,6.6,4.9,8.7,8.1c2.2,3.8,3.3,7.6,3.3,11.9
				c0,2.7-0.5,5.4-1.6,8.1C2249.5,1244,2247.3,1246.7,2244.6,1249.9L2244.6,1249.9z"/>
		</defs>
		<defs>
			<path id="SVGID_8_" d="M2227.1,1225.6c-2.7,0-4.9,1.1-6,2.7c-1.6,1.6-2.7,3.8-2.7,6.5c0,2.7,1.1,4.9,2.7,6.5
				c1.6,1.6,3.8,2.7,6.6,2.7c2.7,0,4.9-1.1,6.6-2.7c1.6-1.6,2.7-3.8,2.7-6.5c0-2.7-1.1-4.9-2.7-6.5
				C2232,1226.7,2229.8,1225.6,2227.1,1225.6L2227.1,1225.6z"/>
		</defs>
		<defs>
			<path id="SVGID_9_" d="M2227.6,1258c-3.8,0-7.1,1.1-9.3,3.2c-2.7,2.2-3.8,4.9-3.8,8.1c0,3.2,1.1,5.9,3.8,8.1
				c2.2,2.2,5.5,3.2,9.3,3.2c3.8,0,7.1-1.1,9.3-3.2c2.2-2.2,3.3-4.9,3.3-8.1c0-3.2-1.1-5.9-3.8-8.1
				C2234.7,1259.1,2231.5,1258,2227.6,1258L2227.6,1258z"/>
		</defs>
		<defs>
			<path id="SVGID_10_" d="M2291,1211l13.1,6.5l-14.2,27.5c7.1,0,12.6,2.7,17.5,7.6c4.9,4.9,7.1,10.8,7.1,18.4c0,7-2.7,13-7.6,17.8
				c-4.9,4.9-10.9,7.6-18,7.6c-7.1,0-13.6-2.7-18.6-7.6c-4.9-4.9-7.1-10.8-7.1-17.3c0-2.7,0.5-4.9,1.1-7.6c0.5-2.7,2.7-6.5,5.5-11.9
				L2291,1211L2291,1211z"/>
		</defs>
		<defs>
			<path id="SVGID_11_" d="M2288.8,1259.1c-2.7,0-5.5,1.1-7.1,3.2c-2.2,2.2-2.7,4.9-2.7,7.6c0,3.2,1.1,5.9,3.3,7.6
				c2.2,2.2,4.4,3.2,7.1,3.2c2.7,0,5.5-1.1,7.6-3.2c2.2-2.2,3.3-4.9,3.3-8.1c0-3.2-1.1-5.9-3.3-7.6
				C2294.8,1260.2,2292.1,1259.1,2288.8,1259.1L2288.8,1259.1z"/>
		</defs>
		<defs>
			<path id="SVGID_12_" d="M2351,1295.2l-13.1-6.5l14.2-27.5c-7.1,0.5-13.1-2.2-18-7c-4.9-4.9-7.1-10.8-7.1-18.4
				c0-7,2.7-13,7.6-17.8c4.9-4.3,10.9-7,18-7c7.1,0,13.6,2.7,18.6,7.6c4.9,4.9,7.1,10.8,7.1,17.3c0,2.7-0.5,4.9-1.1,7.6
				c-0.6,2.7-2.7,6.5-5.5,11.3L2351,1295.2L2351,1295.2z"/>
		</defs>
		<defs>
			<path id="SVGID_13_" d="M2352.6,1247.2c2.7,0,5.5-1.1,7.1-3.2c2.2-2.2,2.7-4.9,2.7-7.6c0-3.2-1.1-5.9-3.3-8.1
				c-2.2-2.2-4.4-3.2-7.1-3.2c-2.7,0-5.5,1.1-7.6,3.2c-2.2,2.2-3.3,4.9-3.3,8.1c0,3.2,1.1,5.9,3.3,7.6
				C2347.2,1246.1,2349.9,1247.2,2352.6,1247.2L2352.6,1247.2z"/>
		</defs>
		<defs>
			<polygon id="SVGID_14_" points="2389.2,1213.2 2442.7,1213.2 2442.7,1221.3 2406.1,1295.8 2393,1289.3 2423.1,1227.2 
				2389.2,1227.2 2389.2,1213.2 			"/>
		</defs>
		<defs>
			<polygon id="SVGID_15_" points="2482,1211 2497.3,1211 2497.3,1262.9 2504.4,1262.9 2504.4,1276.9 2497.3,1276.9 2497.3,1293.1 
				2482,1293.1 2482,1276.9 2446.5,1276.9 2446.5,1262.9 2482,1211 			"/>
		</defs>
		<defs>
			<polygon id="SVGID_16_" points="2482.6,1262.9 2482.6,1235.9 2464,1262.9 2482.6,1262.9 			"/>
		</defs>
		<defs>
			<path id="SVGID_17_" d="M2539.3,1211l13.1,6.5l-14.2,27.5c7.1,0,12.6,2.7,17.5,7.6c4.9,4.9,7.1,10.8,7.1,18.4
				c0,7-2.7,13-7.6,17.8c-4.9,4.9-10.9,7.6-18,7.6c-7.1,0-13.6-2.7-18.6-7.6c-4.9-4.9-7.1-10.8-7.1-17.3c0-2.7,0.5-4.9,1.1-7.6
				c0.5-2.7,2.7-6.5,5.5-11.9L2539.3,1211L2539.3,1211z"/>
		</defs>
		<defs>
			<path id="SVGID_18_" d="M2537.7,1259.1c-2.7,0-5.5,1.1-7.1,3.2c-2.2,2.2-2.7,4.9-2.7,7.6c0,3.2,1.1,5.9,3.3,7.6
				c2.2,2.2,4.4,3.2,7.1,3.2c2.7,0,5.5-1.1,7.6-3.2c2.2-2.2,3.3-4.9,3.3-8.1c0-3.2-1.1-5.9-3.3-7.6
				C2543.1,1260.2,2540.4,1259.1,2537.7,1259.1L2537.7,1259.1z"/>
		</defs>
		<defs>
			<path id="SVGID_19_" d="M2587.4,1213.2h38.2v14h-26.8l-2.7,14.6c1.1,0,1.6-0.5,2.7-0.5h2.7c7.1,0,13.6,2.7,18.6,7.6
				c4.9,4.9,7.1,11.3,7.1,18.9c0,8.1-2.7,14.6-8.2,20c-5.5,5.4-12,8.1-19.7,8.1c-7.1,0-13.1-2.2-18-5.9c-4.9-3.8-8.2-9.2-9.8-16.2
				h16.4c1.1,2.7,2.7,4.3,4.9,5.9c2.2,1.1,4.4,2.2,6.5,2.2c3.3,0,6.5-1.1,8.7-3.8c2.2-2.2,3.8-5.4,3.8-9.2c0-3.8-1.1-6.5-3.3-9.2
				c-2.2-2.2-4.9-3.8-8.2-3.8c-1.6,0-3.3,0.5-4.9,1.1c-1.6,1.1-3.3,2.2-4.9,3.8l-12.6-2.7L2587.4,1213.2L2587.4,1213.2z"/>
		</defs>
		<defs>
			<path id="SVGID_20_" d="M2526.2,1344.9h-15.3c0.5-8.6,3.3-15.7,8.2-20.5c4.9-4.8,11.5-7.6,19.7-7.6c4.9,0,9.3,1.1,13.1,3.2
				c3.8,2.2,6.6,4.9,9.3,9.2c2.2,3.8,3.3,8.1,3.3,11.9c0,4.9-1.6,9.7-4.4,15.7c-2.7,5.4-7.6,11.9-15.3,19.4l-9.3,9.7h28.9v14h-55.7
				v-7.6l25.1-25.4c6-5.9,10.4-10.8,12-14.6c2.2-3.8,3.3-7,3.3-10.3c0-3.2-1.1-5.4-3.3-7.6c-2.2-2.2-4.9-3.2-8.2-3.2
				c-3.3,0-6,1.1-8.2,3.8C2527.9,1337.3,2526.2,1340.6,2526.2,1344.9L2526.2,1344.9z"/>
		</defs>
		<defs>
			<path id="SVGID_21_" d="M2599.9,1316.8c6,0,10.9,1.6,15.3,4.3c4.4,2.7,7.6,7,9.8,13c2.2,5.9,3.3,14,3.3,24.8
				c0,10.8-1.1,18.9-3.8,24.8c-2.2,5.9-5.5,10.3-9.8,13c-3.8,2.7-9.3,4.3-15.3,4.3c-6,0-11.5-1.6-15.3-4.3c-4.4-2.7-7.6-7-9.8-13
				c-2.2-5.9-3.3-14-3.3-24.3c0-14.6,2.2-25.4,7.1-31.9C2584.1,1320.6,2591.2,1316.8,2599.9,1316.8L2599.9,1316.8z"/>
		</defs>
		<defs>
			<path id="SVGID_22_" d="M2600.5,1331.4c-2.7,0-4.9,0.5-7.1,2.7c-2.2,1.6-3.8,4.3-4.9,8.6c-1.1,3.8-1.6,9.7-1.6,17.8
				c0,10.3,1.1,17.3,3.8,21.1c2.2,3.8,5.5,5.9,9.3,5.9c3.8,0,6.6-1.6,8.7-5.4c2.7-4.3,3.8-11.9,3.8-22.1c0-10.3-1.1-17.8-3.8-21.6
				C2607.6,1333.6,2604.3,1331.4,2600.5,1331.4L2600.5,1331.4z"/>
		</defs>
		<defs>
			<polygon id="SVGID_23_" points="2637.6,1319 2691.1,1319 2691.1,1327.1 2654.5,1401.6 2641.4,1395.1 2672,1333 2638.1,1333 
				2638.1,1319 2637.6,1319 			"/>
		</defs>
		<defs>
			<polygon id="SVGID_24_" points="2699.8,1319 2753.3,1319 2753.3,1327.1 2716.2,1401.6 2703.1,1395.1 2733.6,1333 2699.8,1333 
				2699.8,1319 			"/>
		</defs>
		<defs>
			<path id="SVGID_25_" d="M2226.6,1507.4l-13.1-6.5l14.2-27.5c-7.1,0-12.6-2.7-17.5-7.6c-4.9-4.9-7.1-10.8-7.1-18.4
				c0-7,2.7-13,7.6-17.8c4.9-4.9,10.9-7.6,18-7.6c7.1,0,13.6,2.7,18.6,7.6c4.9,4.9,7.1,10.8,7.1,17.3c0,2.7-0.5,4.9-1.1,7.6
				c-0.5,2.7-2.7,6.5-5.5,11.3L2226.6,1507.4L2226.6,1507.4z"/>
		</defs>
		<defs>
			<path id="SVGID_26_" d="M2228.7,1458.8c2.7,0,5.5-1.1,7.1-3.2c2.2-2.2,2.7-4.9,2.7-7.6c0-3.2-1.1-5.9-3.3-8.1
				c-2.2-2.2-4.4-3.2-7.1-3.2c-2.7,0-5.5,1.1-7.6,3.2c-2.2,2.2-3.3,4.9-3.3,8.1c0,3.2,1.1,5.9,3.3,7.6
				C2223.3,1457.7,2225.5,1458.8,2228.7,1458.8L2228.7,1458.8z"/>
		</defs>
		<defs>
			<path id="SVGID_27_" d="M2687.3,1634.8c6,0,10.9,1.6,15.3,4.3c4.4,2.7,7.6,7,9.8,13c2.2,5.9,3.3,14,3.3,24.8
				c0,10.8-1.1,18.9-3.8,24.8c-2.2,5.9-5.5,10.3-9.8,13c-3.8,2.7-9.3,4.3-15.3,4.3c-6,0-11.5-1.6-15.3-4.3c-4.4-2.7-7.6-7-9.8-13
				c-2.2-5.9-3.3-14-3.3-24.3c0-14.6,2.2-25.4,7.1-31.8C2670.9,1638,2678,1634.8,2687.3,1634.8L2687.3,1634.8z"/>
		</defs>
		<defs>
			<path id="SVGID_28_" d="M2687.8,1649.4c-2.7,0-4.9,0.5-7.1,2.7c-2.2,1.6-3.8,4.3-4.4,8.6c-1.1,3.8-1.6,9.7-1.6,17.8
				c0,10.3,1.1,17.3,3.8,21.1c2.2,3.8,5.5,5.9,9.3,5.9c3.8,0,6.6-1.6,8.7-5.4c2.7-4.3,3.8-11.9,3.8-22.1c0-10.3-1.1-17.8-3.8-21.6
				C2694.3,1651,2691.6,1649.4,2687.8,1649.4L2687.8,1649.4z"/>
		</defs>
		<defs>
			<polygon id="SVGID_29_" points="2078.6,1742.2 2132.1,1742.2 2132.1,1750.3 2095.5,1824.8 2082.5,1818.4 2113,1756.3 
				2079.2,1756.3 2079.2,1742.2 2078.6,1742.2 			"/>
		</defs>
		<defs>
			<path id="SVGID_30_" d="M2413.2,1824.8l-13.1-6.5l14.2-27.5c-7.1,0-12.6-2.7-17.5-7.6c-4.9-4.9-7.1-10.8-7.1-18.4
				c0-7,2.7-13,7.6-17.8c4.9-4.9,10.9-7.6,18-7.6c7.1,0,13.6,2.7,18.6,7.6c4.9,4.9,7.1,10.8,7.1,17.3c0,2.7-0.5,4.9-1.1,7.6
				c-0.5,2.7-2.7,6.5-5.5,11.3L2413.2,1824.8L2413.2,1824.8z"/>
		</defs>
		<defs>
			<path id="SVGID_31_" d="M2414.9,1776.8c2.7,0,5.5-1.1,7.1-3.2c2.2-2.2,2.7-4.9,2.7-7.6c0-3.2-1.1-5.9-3.3-8.1
				c-2.2-2.2-4.4-3.2-7.1-3.2c-2.7,0-5.5,1.1-7.6,3.2c-2.2,2.2-3.3,4.9-3.3,8.1c0,3.2,1.1,5.9,3.3,7.6
				C2409.4,1775.7,2412.1,1776.8,2414.9,1776.8L2414.9,1776.8z"/>
		</defs>
		<defs>
			<path id="SVGID_32_" d="M2649.6,1742.2h38.2v14h-26.7l-3.3,14.6c1.1,0,1.6-0.5,2.7-0.5h2.7c7.1,0,13.6,2.7,18.6,7.6
				c4.9,4.9,7.1,11.3,7.1,18.9c0,8.1-2.7,14.6-8.2,20c-5.5,5.4-12,8.1-19.7,8.1c-7.1,0-13.1-2.2-18-5.9c-4.9-3.8-8.2-9.2-9.8-16.2
				h16.4c1.1,2.7,2.7,4.3,4.9,5.9c2.2,1.1,4.4,2.2,6.6,2.2c3.3,0,6.5-1.1,8.7-3.8c2.2-2.2,3.8-5.4,3.8-9.2c0-3.8-1.1-6.5-3.3-9.2
				c-2.2-2.2-4.9-3.8-8.2-3.8c-1.6,0-3.3,0.5-4.9,1.1c-1.6,1.1-3.3,2.2-4.9,3.8l-12.6-2.7L2649.6,1742.2L2649.6,1742.2z"/>
		</defs>
		<defs>
			<polygon id="SVGID_33_" points="2233.6,1846.4 2248.9,1846.4 2248.9,1898.2 2256,1898.2 2256,1912.3 2248.9,1912.3 
				2248.9,1928.5 2233.6,1928.5 2233.6,1912.3 2198.2,1912.3 2198.2,1898.2 2233.6,1846.4 			"/>
		</defs>
		<defs>
			<polygon id="SVGID_34_" points="2233.6,1898.2 2233.6,1871.3 2215.1,1898.2 2233.6,1898.2 			"/>
		</defs>
		<defs>
			<path id="SVGID_35_" d="M2750.6,1874.5h-15.3c0.5-8.6,3.3-15.7,8.2-20.5c4.9-4.9,11.5-7.6,19.6-7.6c4.9,0,9.3,1.1,13.1,3.2
				c3.8,2.2,6.5,4.9,9.3,8.6c2.2,3.8,3.3,8.1,3.3,11.9c0,4.9-1.6,9.7-4.4,15.7c-2.7,5.4-7.6,11.9-15.3,19.4l-9.3,9.7h28.9v14h-56.2
				v-7.6l25.1-25.4c6-5.9,10.4-10.8,12-14.6c2.2-3.8,3.3-7,3.3-10.3c0-3.2-1.1-5.4-3.3-7.6c-2.2-2.2-4.9-3.2-8.2-3.2
				c-3.3,0-6,1.1-8.2,3.8C2752.2,1866.9,2750.6,1870.2,2750.6,1874.5L2750.6,1874.5z"/>
		</defs>
		<defs>
			<path id="SVGID_36_" d="M2824.8,1846.4c6,0,10.9,1.6,15.3,4.3c4.4,2.7,7.6,7,9.8,13c2.2,5.9,3.3,14,3.3,24.8
				c0,10.8-1.1,18.9-3.8,24.8c-2.2,5.9-5.5,10.3-9.8,13c-3.8,2.7-9.3,4.3-15.3,4.3c-6,0-11.5-1.6-15.3-4.3c-4.4-2.7-7.6-7-9.8-13
				c-2.2-5.9-3.3-14-3.3-24.3c0-14.6,2.2-25.4,7.1-31.8C2808.4,1850.2,2815.5,1846.4,2824.8,1846.4L2824.8,1846.4z"/>
		</defs>
		<defs>
			<path id="SVGID_37_" d="M2824.8,1861c-2.7,0-4.9,0.5-7.1,2.7c-2.2,1.6-3.8,4.3-4.9,8.6c-1.1,3.8-1.6,9.7-1.6,17.8
				c0,10.3,1.1,17.3,3.8,21.1c2.2,3.8,5.5,5.9,9.3,5.9c3.8,0,6.6-1.6,8.7-5.4c2.7-4.3,3.8-11.9,3.8-22.1c0-10.3-1.1-17.8-3.8-21.6
				C2831.9,1863.2,2828.6,1861,2824.8,1861L2824.8,1861z"/>
		</defs>
		<defs>
			<polygon id="SVGID_38_" points="2016.4,1954.4 2069.9,1954.4 2069.9,1962.5 2033.3,2037 2020.2,2030.5 2050.8,1968.4 
				2016.4,1968.4 2016.4,1954.4 			"/>
		</defs>
		<defs>
			<polygon id="SVGID_39_" points="2078.6,1954.4 2132.1,1954.4 2132.1,1962.5 2095.5,2037 2082.5,2030.5 2113,1968.4 
				2079.2,1968.4 2079.2,1954.4 2078.6,1954.4 			"/>
		</defs>
		<defs>
			<path id="SVGID_40_" d="M2166.5,1952.2l13.1,6.5l-14.2,27.5c7.1,0,12.6,2.7,17.5,7.6c4.9,4.9,7.1,10.8,7.1,18.4
				c0,7-2.7,13-7.6,17.8c-4.9,4.9-10.9,7.6-18,7.6c-7.1,0-13.6-2.7-18.6-7.6c-4.9-4.9-7.1-10.8-7.1-17.3c0-2.7,0.5-4.9,1.1-7.6
				c0.5-2.7,2.7-6.5,5.5-11.9L2166.5,1952.2L2166.5,1952.2z"/>
		</defs>
		<defs>
			<path id="SVGID_41_" d="M2164.9,2000.3c-2.7,0-5.5,1.1-7.1,3.2c-2.2,2.2-2.7,4.9-2.7,7.6c0,3.2,1.1,5.9,3.3,7.6
				c2.2,2.2,4.4,3.2,7.1,3.2c2.7,0,5.5-1.1,7.6-3.2c2.2-2.2,3.3-4.9,3.3-8.1c0-3.2-1.1-5.9-3.3-7.6
				C2170.3,2001.4,2167.6,2000.3,2164.9,2000.3L2164.9,2000.3z"/>
		</defs>
		<defs>
			<path id="SVGID_42_" d="M2244.6,1991.1c3.8,2.2,6.6,5.4,8.7,9.2c2.2,3.8,3.3,7.6,3.3,11.9c0,4.9-1.1,9.2-3.3,13
				c-2.2,3.8-5.5,7-9.3,8.6c-3.8,2.2-8.7,3.2-15.3,3.2c-6.6,0-12-1.1-15.8-2.7c-3.8-2.2-7.1-4.9-9.3-8.6c-2.2-3.8-3.3-8.1-3.3-13
				c0-4.3,1.1-8.1,2.7-11.3c1.6-3.2,4.9-6.5,8.2-9.2c-2.2-2.7-4.4-4.9-5.5-7.6c-1.1-2.7-1.6-5.4-1.6-8.6c0-4.3,1.1-8.1,3.3-11.3
				c2.2-3.2,4.9-5.9,8.7-8.1c3.8-2.2,8.2-2.7,12.6-2.7c4.9,0,8.7,1.1,12.6,2.7c3.8,2.2,6.5,4.9,8.7,8.1c2.2,3.8,3.3,7.6,3.3,11.3
				c0,2.7-0.5,5.4-1.6,8.1C2249.5,1985.2,2247.3,1987.9,2244.6,1991.1L2244.6,1991.1z"/>
		</defs>
		<defs>
			<path id="SVGID_43_" d="M2227.1,1966.8c-2.7,0-4.9,1.1-6,2.7c-1.6,1.6-2.7,3.8-2.7,6.5c0,2.7,1.1,4.9,2.7,6.5
				c1.6,1.6,3.8,2.7,6.6,2.7c2.7,0,4.9-1.1,6.6-2.7c1.6-1.6,2.7-3.8,2.7-6.5c0-2.7-1.1-4.9-2.7-6.5
				C2232,1967.9,2229.8,1966.8,2227.1,1966.8L2227.1,1966.8z"/>
		</defs>
		<defs>
			<path id="SVGID_44_" d="M2227.6,1999.2c-3.8,0-7.1,1.1-9.3,3.2c-2.7,2.2-3.8,4.9-3.8,8.1c0,3.2,1.1,5.9,3.8,8.1
				c2.2,2.2,5.5,3.2,9.3,3.2c3.8,0,7.1-1.1,9.3-3.2c2.2-2.2,3.3-4.9,3.3-8.1c0-3.2-1.1-5.9-3.8-8.1
				C2234.7,2000.3,2231.5,1999.2,2227.6,1999.2L2227.6,1999.2z"/>
		</defs>
		<defs>
			<path id="SVGID_45_" d="M2609.2,1952.2l13.1,6.5l-14.2,27.5c7.1,0,12.6,2.7,17.5,7.6c4.9,4.9,7.1,10.8,7.1,18.4
				c0,7-2.7,13-7.6,17.8c-4.9,4.9-10.9,7.6-18,7.6c-7.1,0-13.6-2.7-18.6-7.6c-4.9-4.9-7.1-10.8-7.1-17.3c0-2.7,0.5-4.9,1.1-7.6
				c0.5-2.7,2.7-6.5,5.5-11.9L2609.2,1952.2L2609.2,1952.2z"/>
		</defs>
		<defs>
			<path id="SVGID_46_" d="M2607,2000.3c-2.7,0-5.5,1.1-7.1,3.2c-2.2,2.2-2.7,4.9-2.7,7.6c0,3.2,1.1,5.9,3.3,7.6
				c2.2,2.2,4.4,3.2,7.1,3.2c2.7,0,5.5-1.1,7.6-3.2c2.2-2.2,3.3-4.9,3.3-8.1c0-3.2-1.1-5.9-3.3-7.6
				C2613,2001.4,2610.3,2000.3,2607,2000.3L2607,2000.3z"/>
		</defs>
		<defs>
			<path id="SVGID_47_" d="M2669.2,2036.4l-13.1-6.5l14.2-27.5c-7.1,0-12.6-2.7-17.5-7.6c-4.9-4.9-7.1-10.8-7.1-18.4
				c0-7,2.7-13,7.6-17.8c4.9-4.9,10.9-7.6,18-7.6c7.1,0,13.6,2.7,18.6,7.6c4.9,4.9,7.1,10.8,7.1,17.3c0,2.7-0.5,4.9-1.1,7.6
				c-0.5,2.7-2.7,6.5-5.5,11.3L2669.2,2036.4L2669.2,2036.4z"/>
		</defs>
		<defs>
			<path id="SVGID_48_" d="M2670.9,1988.4c2.7,0,5.5-1.1,7.1-3.2c2.2-2.2,2.7-4.9,2.7-7.6c0-3.2-1.1-5.9-3.3-8.1
				c-2.2-2.2-4.4-3.2-7.1-3.2c-2.7,0-5.5,1.1-7.6,3.2c-2.2,2.2-3.3,4.9-3.3,8.1c0,3.2,1.1,5.9,3.3,7.6
				C2665.4,1987.3,2668.2,1988.4,2670.9,1988.4L2670.9,1988.4z"/>
		</defs>
		<defs>
			<polygon id="SVGID_49_" points="2707.4,1954.4 2760.9,1954.4 2760.9,1962.5 2724.4,2037 2711.3,2030.5 2741.8,1968.4 
				2708,1968.4 2708,1954.4 2707.4,1954.4 			"/>
		</defs>
		<defs>
			<polygon id="SVGID_50_" points="2800.2,1952.2 2815.5,1952.2 2815.5,2004.1 2822.6,2004.1 2822.6,2018.1 2815.5,2018.1 
				2815.5,2034.3 2800.2,2034.3 2800.2,2018.1 2764.8,2018.1 2764.8,2004.1 2800.2,1952.2 			"/>
		</defs>
		<defs>
			<polygon id="SVGID_51_" points="2800.2,2004.1 2800.2,1977.1 2781.7,2004.1 2800.2,2004.1 			"/>
		</defs>
		<defs>
			<path id="SVGID_52_" d="M2857.6,1952.2l13.1,6.5l-14.2,27.5c7.1,0,12.6,2.7,17.5,7.6c4.9,4.9,7.1,10.8,7.1,18.4
				c0,7-2.7,13-7.6,17.8c-4.9,4.9-10.9,7.6-18,7.6c-7.1,0-13.6-2.7-18.6-7.6c-4.9-4.9-7.1-10.8-7.1-17.3c0-2.7,0.5-4.9,1.1-7.6
				c0.5-2.7,2.7-6.5,5.5-11.9L2857.6,1952.2L2857.6,1952.2z"/>
		</defs>
		<defs>
			<path id="SVGID_53_" d="M2855.9,2000.3c-2.7,0-5.5,1.1-7.1,3.2c-2.2,2.2-2.7,4.9-2.7,7.6c0,3.2,1.1,5.9,3.3,7.6
				c2.2,2.2,4.4,3.2,7.1,3.2c2.7,0,5.5-1.1,7.6-3.2c2.2-2.2,3.3-4.9,3.3-8.1c0-3.2-1.1-5.9-3.3-7.6
				C2861.4,2001.4,2858.6,2000.3,2855.9,2000.3L2855.9,2000.3z"/>
		</defs>
		<defs>
			<path id="SVGID_54_" d="M2028.4,2060.2h38.2v14h-26.7l-3.3,14.6c1.1,0,1.6-0.5,2.7-0.5h2.7c7.1,0,13.6,2.7,18.6,7.6
				c4.9,4.9,7.1,11.3,7.1,18.9c0,8.1-2.7,14.6-8.2,20c-5.5,5.4-12,8.1-19.7,8.1c-7.1,0-13.1-2.2-18-5.9c-4.9-3.8-8.2-9.2-9.8-16.2
				h16.4c1.1,2.7,2.7,4.3,4.9,5.9c2.2,1.1,4.4,2.2,6.6,2.2c3.3,0,6.6-1.1,8.7-3.8c2.2-2.2,3.8-5.4,3.8-9.2c0-3.8-1.1-6.5-3.3-9.2
				c-2.2-2.2-4.9-3.8-8.2-3.8c-1.6,0-3.3,0.5-4.9,1.1c-1.6,1.1-3.3,2.2-4.9,3.8l-12.6-2.7L2028.4,2060.2L2028.4,2060.2z"/>
		</defs>
		<defs>
			<path id="SVGID_55_" d="M2091.7,2086.1h-15.3c0.5-8.6,3.3-15.7,8.2-20.5c4.9-4.9,11.5-7.6,19.7-7.6c4.9,0,9.3,1.1,13.1,3.2
				c3.8,2.2,6.6,4.9,9.3,8.6c2.2,3.8,3.3,8.1,3.3,11.9c0,4.9-1.6,9.7-4.4,15.7c-2.7,5.4-7.6,11.9-15.3,19.4l-9.3,9.7h28.9v14h-55.7
				v-7.6l25.1-25.4c6-5.9,10.4-10.8,12-14.6c2.2-3.8,3.3-7,3.3-10.3c0-3.2-1.1-5.4-3.3-7.6c-2.2-2.2-4.9-3.2-8.2-3.2
				c-3.3,0-6,1.1-8.2,3.8C2092.8,2078.6,2091.7,2081.8,2091.7,2086.1L2091.7,2086.1z"/>
		</defs>
		<defs>
			<path id="SVGID_56_" d="M2165.4,2058c6,0,10.9,1.6,15.3,4.3c4.4,2.7,7.6,7,9.8,13c2.2,5.9,3.3,14,3.3,24.8
				c0,10.8-1.1,18.9-3.8,24.8c-2.2,5.9-5.5,10.3-9.8,13c-3.8,2.7-9.3,4.3-15.3,4.3c-6,0-11.5-1.6-15.3-4.3c-4.4-2.7-7.6-7-9.8-13
				c-2.2-5.9-3.3-14-3.3-24.3c0-14.6,2.2-25.4,7.1-31.9C2149,2061.8,2156.1,2058,2165.4,2058L2165.4,2058z"/>
		</defs>
		<defs>
			<path id="SVGID_57_" d="M2166,2072.6c-2.7,0-4.9,0.5-7.1,2.7c-2.2,1.6-3.8,4.3-4.4,8.6c-1.1,3.8-1.6,9.7-1.6,17.8
				c0,10.3,1.1,17.3,3.8,21.1c2.2,3.8,5.5,5.9,9.3,5.9c3.8,0,6.6-1.6,8.7-5.4c2.7-4.3,3.8-11.9,3.8-22.1c0-10.3-1.1-17.8-3.8-21.6
				C2172.5,2074.8,2169.8,2072.6,2166,2072.6L2166,2072.6z"/>
		</defs>
		<defs>
			<path id="SVGID_58_" d="M2228.7,2058l13.1,6.5l-14.2,27.5c7.1,0,12.6,2.7,17.5,7.6c4.9,4.9,7.1,10.8,7.1,18.4
				c0,7-2.7,13-7.6,17.8c-4.9,4.9-10.9,7.6-18,7.6c-7.1,0-13.6-2.7-18.6-7.6c-4.9-4.9-7.1-10.8-7.1-17.3c0-2.7,0.5-4.9,1.1-7.6
				c0.5-2.7,2.7-6.5,5.5-11.9L2228.7,2058L2228.7,2058z"/>
		</defs>
		<defs>
			<path id="SVGID_59_" d="M2227.1,2106.6c-2.7,0-5.5,1.1-7.1,3.2c-2.2,2.2-2.7,4.9-2.7,7.6c0,3.2,1.1,5.9,3.3,7.6
				c2.2,2.2,4.4,3.2,7.1,3.2c2.7,0,5.5-1.1,7.6-3.2c2.2-2.2,3.3-4.9,3.3-8.1c0-3.2-1.1-5.9-3.3-7.6
				C2232.6,2107.2,2229.8,2106.6,2227.1,2106.6L2227.1,2106.6z"/>
		</defs>
		<defs>
			<path id="SVGID_60_" d="M2575.4,2142.3l-13.1-6.5l14.2-27.5c-7.1,0-12.6-2.7-17.5-7.6c-4.9-4.9-7.1-10.8-7.1-18.4
				c0-7,2.7-13,7.6-17.8c4.9-4.9,10.9-7.6,18-7.6c7.1,0,13.7,2.7,18.6,7.6c4.9,4.9,7.1,10.8,7.1,17.3c0,2.7-0.5,4.9-1.1,7.6
				c-0.5,2.7-2.7,6.5-5.5,11.3L2575.4,2142.3L2575.4,2142.3z"/>
		</defs>
		<defs>
			<path id="SVGID_61_" d="M2577,2094.2c2.7,0,5.5-1.1,7.1-3.2c2.2-2.2,2.7-4.9,2.7-7.6c0-3.2-1.1-5.9-3.3-8.1
				c-2.2-2.2-4.4-3.2-7.1-3.2c-2.7,0-5.5,1.1-7.6,3.2c-2.2,2.2-3.3,4.9-3.3,8.1c0,3.2,1.1,5.9,3.3,7.6
				C2571.5,2093.1,2574.3,2094.2,2577,2094.2L2577,2094.2z"/>
		</defs>
		<defs>
			<polygon id="SVGID_62_" points="2613.6,2060.2 2667.1,2060.2 2667.1,2068.3 2630.5,2142.8 2617.4,2136.3 2647.9,2074.2 
				2614.1,2074.2 2614.1,2060.2 2613.6,2060.2 			"/>
		</defs>
		<defs>
			<path id="SVGID_63_" d="M2690.5,2080.2h-14.7c0.5-5.9,2.7-10.8,6.5-14c4.9-4.9,10.9-7.6,18.6-7.6c6.6,0,12,2.2,16.9,6.5
				c4.4,4.3,6.6,9.2,6.6,15.1c0,3.8-1.1,7-2.7,9.7c-2.2,2.7-4.9,5.4-8.7,7c4.9,1.6,8.7,3.8,11.5,7.6c2.7,3.8,4.4,8.1,4.4,13
				c0,7-2.7,13.5-8.2,18.4c-5.5,4.9-12,7.6-20.7,7.6c-7.6,0-14.2-2.2-19.1-7s-7.6-11.3-8.2-19.4h15.3c0.5,4.3,2.2,7,4.4,9.2
				c2.2,2.2,4.9,3.2,8.7,3.2c3.8,0,6.6-1.1,8.7-3.2c2.2-2.2,3.8-4.9,3.8-8.6c0-3.8-1.6-6.5-4.9-9.2c-3.3-2.7-7.6-3.8-13.6-3.8v-13
				c3.8-0.5,6.5-1.1,8.2-1.6c1.6-1.1,3.3-2.2,4.4-3.8c1.1-1.6,1.6-3.2,1.6-4.9c0-2.2-0.5-3.8-2.2-5.4c-1.6-1.6-3.8-2.2-6-2.2
				c-2.2,0-4.4,0.5-6,2.2C2692.2,2075.9,2691.1,2078,2690.5,2080.2L2690.5,2080.2z"/>
		</defs>
		<defs>
			<path id="SVGID_64_" d="M2750.6,2086.1h-15.3c0.5-8.6,3.3-15.7,8.2-20.5c4.9-4.9,11.5-7.6,19.6-7.6c4.9,0,9.3,1.1,13.1,3.2
				c3.8,2.2,6.5,4.9,9.3,8.6c2.2,3.8,3.3,8.1,3.3,11.9c0,4.9-1.6,9.7-4.4,15.7c-2.7,5.4-7.6,11.9-15.3,19.4l-9.3,9.7h28.9v14h-56.2
				v-7.6l25.1-25.4c6-5.9,10.4-10.8,12-14.6c2.2-3.8,3.3-7,3.3-10.3c0-3.2-1.1-5.4-3.3-7.6c-2.2-2.2-4.9-3.2-8.2-3.2
				c-3.3,0-6,1.1-8.2,3.8C2752.2,2078.6,2750.6,2081.8,2750.6,2086.1L2750.6,2086.1z"/>
		</defs>
		<defs>
			<path id="SVGID_65_" d="M2824.8,2058c6,0,10.9,1.6,15.3,4.3c4.4,2.7,7.6,7,9.8,13c2.2,5.9,3.3,14,3.3,24.8
				c0,10.8-1.1,18.9-3.8,24.8c-2.2,5.9-5.5,10.3-9.8,13c-3.8,2.7-9.3,4.3-15.3,4.3c-6,0-11.5-1.6-15.3-4.3c-4.4-2.7-7.6-7-9.8-13
				c-2.2-5.9-3.3-14-3.3-24.3c0-14.6,2.2-25.4,7.1-31.9C2808.4,2061.8,2815.5,2058,2824.8,2058L2824.8,2058z"/>
		</defs>
		<defs>
			<path id="SVGID_66_" d="M2824.8,2072.6c-2.7,0-4.9,0.5-7.1,2.7c-2.2,1.6-3.8,4.3-4.9,8.6c-1.1,3.8-1.6,9.7-1.6,17.8
				c0,10.3,1.1,17.3,3.8,21.1c2.2,3.8,5.5,5.9,9.3,5.9c3.8,0,6.6-1.6,8.7-5.4c2.7-4.3,3.8-11.9,3.8-22.1c0-10.3-1.1-17.8-3.8-21.6
				C2831.9,2074.8,2828.6,2072.6,2824.8,2072.6L2824.8,2072.6z"/>
		</defs>
		<defs>
			<path id="SVGID_67_" d="M2042.6,2163.8l13.1,6.5l-14.2,27.5c7.1,0,12.6,2.7,17.5,7.6c4.9,4.9,7.1,10.8,7.1,18.4
				c0,7-2.7,13-7.6,17.8c-4.9,4.9-10.9,7.6-18,7.6c-7.1,0-13.6-2.7-18.6-7.6c-4.9-4.9-7.1-10.8-7.1-17.3c0-2.7,0.5-4.9,1.1-7.6
				c0.5-2.7,2.7-6.5,5.5-11.9L2042.6,2163.8L2042.6,2163.8z"/>
		</defs>
		<defs>
			<path id="SVGID_68_" d="M2040.4,2212.4c-2.7,0-5.5,1.1-7.1,3.2c-2.2,2.2-2.7,4.9-2.7,7.6c0,3.2,1.1,5.9,3.3,7.6
				c2.2,2.2,4.4,3.2,7.1,3.2c2.7,0,5.5-1.1,7.6-3.2c2.2-2.2,3.3-4.9,3.3-8.1c0-3.2-1.1-5.9-3.3-7.6
				C2045.9,2213.5,2043.7,2212.4,2040.4,2212.4L2040.4,2212.4z"/>
		</defs>
		<defs>
			<path id="SVGID_69_" d="M2093.4,2186h-14.7c0.5-5.9,2.7-10.8,6.5-14c4.9-4.9,10.9-7.6,18.6-7.6c6.6,0,12,2.2,16.9,6.5
				c4.4,4.3,6.5,9.2,6.5,15.1c0,3.8-1.1,7-2.7,9.7c-2.2,2.7-4.9,5.4-8.7,7c4.9,1.6,8.7,3.8,11.5,7.6c2.7,3.8,4.4,8.1,4.4,13
				c0,7-2.7,13.5-8.2,18.4c-5.5,4.9-12,7.6-20.7,7.6c-7.6,0-14.2-2.2-19.1-7c-4.9-4.9-7.6-11.3-8.2-19.4h15.3c0.6,4.3,2.2,7,4.4,9.2
				c2.2,2.2,4.9,3.2,8.7,3.2c3.8,0,6.6-1.1,8.7-3.2c2.2-2.2,3.8-5.4,3.8-8.6c0-3.8-1.6-6.5-4.9-9.2c-3.3-2.7-7.6-3.8-13.6-3.8v-13
				c3.8-0.5,6.6-1.1,8.2-1.6c1.6-1.1,3.3-2.2,4.4-3.8c1.1-1.6,1.6-3.2,1.6-4.9c0-2.2-0.5-3.8-2.2-5.4c-1.6-1.6-3.8-2.2-6-2.2
				c-2.2,0-4.4,0.5-6,2.2C2095,2182.2,2093.9,2183.8,2093.4,2186L2093.4,2186z"/>
		</defs>
		<defs>
			<path id="SVGID_70_" d="M2166.5,2163.8l13.1,6.5l-14.2,27.5c7.1,0,12.6,2.7,17.5,7.6c4.9,4.9,7.1,10.8,7.1,18.4
				c0,7-2.7,13-7.6,17.8c-4.9,4.9-10.9,7.6-18,7.6c-7.1,0-13.6-2.7-18.6-7.6c-4.9-4.9-7.1-10.8-7.1-17.3c0-2.7,0.5-4.9,1.1-7.6
				c0.5-2.7,2.7-6.5,5.5-11.9L2166.5,2163.8L2166.5,2163.8z"/>
		</defs>
		<defs>
			<path id="SVGID_71_" d="M2164.9,2212.4c-2.7,0-5.5,1.1-7.1,3.2c-2.2,2.2-2.7,4.9-2.7,7.6c0,3.2,1.1,5.9,3.3,7.6
				c2.2,2.2,4.4,3.2,7.1,3.2c2.7,0,5.5-1.1,7.6-3.2c2.2-2.2,3.3-4.9,3.3-8.1c0-3.2-1.1-5.9-3.3-7.6
				C2170.3,2213.5,2167.6,2212.4,2164.9,2212.4L2164.9,2212.4z"/>
		</defs>
		<defs>
			<path id="SVGID_72_" d="M2280,2180l-10.9,10.3c-7.6-7.6-15.8-11.3-25.1-11.3c-7.6,0-14.2,2.7-19.7,8.1
				c-5.5,5.4-8.2,11.9-8.2,19.4c0,5.4,1.1,10.3,3.8,14c2.2,4.3,5.5,7.6,9.8,9.7c4.4,2.2,9.3,3.8,14.2,3.8c4.4,0,8.7-1.1,12.6-2.7
				c3.8-1.6,7.6-4.9,12-9.2l10.4,10.8c-6,5.9-11.5,9.7-16.9,11.9c-5.5,2.2-11.5,3.2-18.6,3.2c-12.6,0-22.9-3.8-31.1-11.9
				c-8.2-8.1-12-18.4-12-30.2c0-8.1,1.6-15.1,5.5-21.6c3.8-6.5,8.7-11.3,15.8-15.1c6.6-3.8,14.2-5.9,21.8-5.9
				c6.5,0,13.1,1.6,19.1,4.3C2270.2,2170.9,2275.7,2175.2,2280,2180L2280,2180L2280,2180z"/>
		</defs>
		<defs>
			<path id="SVGID_73_" d="M2316.1,2163.8l13.1,6.5l-14.2,27.5c7.1,0,12.6,2.7,17.5,7.6c4.9,4.9,7.1,10.8,7.1,18.4
				c0,7-2.7,13-7.6,17.8c-4.9,4.9-10.9,7.6-18,7.6c-7.1,0-13.6-2.7-18.6-7.6c-4.9-4.9-7.1-10.8-7.1-17.3c0-2.7,0.5-4.9,1.1-7.6
				c0.5-2.7,2.7-6.5,5.5-11.9L2316.1,2163.8L2316.1,2163.8z"/>
		</defs>
		<defs>
			<path id="SVGID_74_" d="M2313.9,2212.4c-2.7,0-5.5,1.1-7.1,3.2c-2.2,2.2-2.7,4.9-2.7,7.6c0,3.2,1.1,5.9,3.3,7.6
				c2.2,2.2,4.4,3.2,7.1,3.2c2.7,0,5.5-1.1,7.6-3.2c2.2-2.2,3.3-4.9,3.3-8.1c0-3.2-1.1-5.9-3.3-7.6
				C2319.3,2213.5,2317.2,2212.4,2313.9,2212.4L2313.9,2212.4z"/>
		</defs>
		<defs>
			<path id="SVGID_75_" d="M2364.1,2166h38.2v14h-26.7l-3.3,14.6c1.1,0,1.6-0.5,2.7-0.5h2.7c7.1,0,13.6,2.7,18.6,7.6
				s7.1,11.3,7.1,18.9c0,8.1-2.7,14.6-8.2,20c-5.5,5.4-12,8.1-19.6,8.1c-7.1,0-13.1-2.2-18-5.9c-4.9-3.8-8.2-9.2-9.8-16.2h16.4
				c1.1,2.7,2.7,4.3,4.9,5.9c2.2,1.1,4.4,2.2,6.5,2.2c3.3,0,6.6-1.1,8.7-3.8c2.2-2.2,3.8-5.4,3.8-9.2c0-3.8-1.1-6.5-3.3-9.2
				c-2.2-2.2-4.9-3.8-8.2-3.8c-1.6,0-3.3,0.5-4.9,1.1c-1.6,1.1-3.3,2.2-4.9,3.8l-12.5-2.7L2364.1,2166L2364.1,2166z"/>
		</defs>
		<defs>
			<path id="SVGID_76_" d="M2440,2163.8l13.1,6.5l-14.2,27.5c7.1,0,12.5,2.7,17.5,7.6c4.9,4.9,7.1,10.8,7.1,18.4
				c0,7-2.7,13-7.6,17.8c-4.9,4.9-10.9,7.6-18,7.6c-7.1,0-13.6-2.7-18.6-7.6c-4.9-4.9-7.1-10.8-7.1-17.3c0-2.7,0.5-4.9,1.1-7.6
				c0.6-2.7,2.7-6.5,5.5-11.9L2440,2163.8L2440,2163.8z"/>
		</defs>
		<defs>
			<path id="SVGID_77_" d="M2438.3,2212.4c-2.7,0-5.5,1.1-7.1,3.2c-2.2,2.2-2.7,4.9-2.7,7.6c0,3.2,1.1,5.9,3.3,7.6
				c2.2,2.2,4.4,3.2,7.1,3.2c2.7,0,5.5-1.1,7.6-3.2c2.2-2.2,3.3-4.9,3.3-8.1c0-3.2-1.1-5.9-3.3-7.6
				C2443.8,2213.5,2441.1,2212.4,2438.3,2212.4L2438.3,2212.4z"/>
		</defs>
		<defs>
			<polygon id="SVGID_78_" points="2488,2166 2511.5,2166 2511.5,2246.4 2496.2,2246.4 2496.2,2180.6 2479.3,2180.6 2488,2166 			
				"/>
		</defs>
		<defs>
			<polygon id="SVGID_79_" points="2538.2,2166 2591.7,2166 2591.7,2174.1 2555.2,2248.6 2542.1,2242.1 2572.6,2180 2538.8,2180 
				2538.8,2166 2538.2,2166 			"/>
		</defs>
		<defs>
			<path id="SVGID_80_" d="M2613.6,2191.9h-15.3c0.5-8.6,3.3-15.7,8.2-20.5s11.5-7.6,19.6-7.6c4.9,0,9.3,1.1,13.1,3.2
				c3.8,2.2,6.5,4.9,9.3,9.2c2.2,3.8,3.3,8.1,3.3,11.9c0,4.9-1.6,9.7-4.4,15.7c-2.7,5.4-7.6,11.9-15.3,19.4l-9.3,9.7h28.9v14h-55.7
				v-7.6l25.1-25.4c6-5.9,10.4-10.8,12-14.6c2.2-3.8,3.3-7,3.3-10.3c0-3.2-1.1-5.4-3.3-7.6c-2.2-2.2-4.9-3.2-8.2-3.2
				c-3.3,0-6,1.1-8.2,3.8C2614.7,2184.4,2613.6,2187.6,2613.6,2191.9L2613.6,2191.9z"/>
		</defs>
		<defs>
			<path id="SVGID_81_" d="M2675.2,2191.9H2660c0.5-8.6,3.3-15.7,8.2-20.5c4.9-4.9,11.5-7.6,19.6-7.6c4.9,0,9.3,1.1,13.1,3.2
				c3.8,2.2,6.6,4.9,9.3,9.2c2.2,3.8,3.3,8.1,3.3,11.9c0,4.9-1.6,9.7-4.4,15.7c-2.7,5.4-7.6,11.9-15.3,19.4l-9.3,9.7h28.9v14h-56.2
				v-7.6l25.1-25.4c6-5.9,10.4-10.8,12-14.6c2.2-3.8,3.3-7,3.3-10.3c0-3.2-1.1-5.4-3.3-7.6c-2.2-2.2-4.9-3.2-8.2-3.2
				c-3.3,0-6,1.1-8.2,3.8C2676.9,2184.4,2675.8,2187.6,2675.2,2191.9L2675.2,2191.9z"/>
		</defs>
		<defs>
			<path id="SVGID_82_" d="M2749.5,2163.8c6,0,10.9,1.6,15.3,4.3c4.4,2.7,7.6,7,9.8,13c2.2,5.9,3.3,14,3.3,24.8
				c0,10.8-1.1,18.9-3.8,24.8c-2.2,5.9-5.5,10.3-9.8,13c-3.8,2.7-9.3,4.3-15.3,4.3c-6,0-11.5-1.6-15.3-4.3c-4.4-2.7-7.6-7-9.8-13
				c-2.2-5.9-3.3-14-3.3-24.3c0-14.6,2.2-25.4,7.1-31.8C2733.1,2167.6,2740.2,2163.8,2749.5,2163.8L2749.5,2163.8z"/>
		</defs>
		<defs>
			<path id="SVGID_83_" d="M2750,2178.4c-2.7,0-4.9,0.5-7.1,2.7c-2.2,1.6-3.8,4.3-4.9,8.6c-1.1,3.8-1.6,9.7-1.6,17.8
				c0,10.3,1.1,17.3,3.8,21.1c2.2,3.8,5.5,5.9,9.3,5.9c3.8,0,6.5-1.6,8.7-5.4c2.7-4.3,3.8-11.9,3.8-22.1c0-10.3-1.1-17.8-3.8-21.6
				C2756.6,2180.6,2753.8,2178.4,2750,2178.4L2750,2178.4z"/>
		</defs>
		<defs>
			<path id="SVGID_84_" d="M2650.7,2297.7h-15.3c0.5-8.6,3.3-15.7,8.2-20.5c4.9-4.9,11.5-7.6,19.7-7.6c4.9,0,9.3,1.1,13.1,3.2
				c3.8,2.2,6.5,4.9,9.3,8.6c2.2,3.8,3.3,8.1,3.3,11.9c0,4.9-1.6,9.7-4.4,15.7c-2.7,5.4-7.6,11.9-15.3,19.4l-9.3,9.7h28.9v14h-56.2
				v-7.6l25.1-25.4c6-5.9,10.4-10.8,12-14.6c2.2-3.8,3.3-7,3.3-10.3c0-3.2-1.1-5.4-3.3-7.6c-2.2-2.2-4.9-3.2-8.2-3.2
				c-3.3,0-6,1.1-8.2,3.8C2651.8,2290.2,2650.7,2293.4,2650.7,2297.7L2650.7,2297.7z"/>
		</defs>
		<defs>
			<path id="SVGID_85_" d="M2029.5,1344.9h-15.3c0.5-8.6,3.3-15.6,8.2-20.5c4.9-4.9,11.5-7.6,19.6-7.6c4.9,0,9.3,1.1,13.1,3.2
				c3.8,2.2,6.5,4.9,9.3,9.2c2.2,3.8,3.3,8.1,3.3,11.9c0,4.9-1.6,9.7-4.4,15.7c-2.7,5.4-7.6,11.9-15.3,19.4l-8.7,9.2h28.9v14H2012
				v-7.6l25.1-25.4c6-5.9,10.4-10.8,12-14.6c2.2-3.8,3.3-7,3.3-10.3c0-3.2-1.1-5.4-3.3-7.6c-2.2-2.2-4.9-3.2-8.2-3.2
				c-3.3,0-6,1.1-8.2,3.8C2030.6,1337.3,2029.5,1340.6,2029.5,1344.9L2029.5,1344.9z"/>
		</defs>
		<defs>
			<path id="SVGID_86_" d="M2103.2,1316.8c6,0,10.9,1.6,15.3,4.3c4.4,2.7,7.6,7,9.8,13c2.2,5.9,3.3,14,3.3,24.8
				c0,10.8-1.1,18.9-3.8,24.8c-2.2,5.9-5.5,10.3-9.8,13c-3.8,2.7-9.3,4.3-15.3,4.3c-6,0-11.5-1.6-15.3-4.3c-4.4-2.7-7.6-7-9.8-13
				c-2.2-5.9-3.3-14-3.3-24.3c0-14.6,2.2-25.4,7.1-31.8C2086.8,1320.6,2093.9,1316.8,2103.2,1316.8L2103.2,1316.8z"/>
		</defs>
		<defs>
			<path id="SVGID_87_" d="M2103.7,1331.4c-2.7,0-4.9,0.5-7.1,2.7c-2.2,1.6-3.8,4.3-4.9,8.6c-1.1,3.8-1.6,9.7-1.6,17.8
				c0,10.3,1.1,17.3,3.8,21c2.2,3.8,5.5,5.9,9.3,5.9c3.8,0,6.6-1.6,8.7-5.4c2.7-4.3,3.8-11.9,3.8-22.1c0-10.3-1.1-17.8-3.8-21.6
				C2110.8,1333.6,2107.6,1331.4,2103.7,1331.4L2103.7,1331.4z"/>
		</defs>
		<defs>
			<polygon id="SVGID_88_" points="2171.4,1316.8 2186.7,1316.8 2186.7,1368.7 2193.8,1368.7 2193.8,1382.7 2186.7,1382.7 
				2186.7,1398.9 2171.4,1398.9 2171.4,1382.7 2135.9,1382.7 2135.9,1368.7 2171.4,1316.8 			"/>
		</defs>
		<defs>
			<polygon id="SVGID_89_" points="2172,1368.7 2172,1341.7 2153.4,1368.7 2172,1368.7 			"/>
		</defs>
		<defs>
			<path id="SVGID_90_" d="M2215.6,1344.9h-15.3c0.5-8.6,3.3-15.6,8.2-20.5c4.9-4.9,11.5-7.6,19.7-7.6c4.9,0,9.3,1.1,13.1,3.2
				c3.8,2.2,6.5,4.9,9.3,9.2c2.2,3.8,3.3,8.1,3.3,11.9c0,4.9-1.6,9.7-4.4,15.7c-2.7,5.4-7.6,11.9-15.3,19.4l-9.3,9.7h28.9v14h-55.7
				v-7.6l25.1-25.4c6-5.9,10.4-10.8,12-14.6c2.2-3.8,3.3-7,3.3-10.3c0-3.2-1.1-5.4-3.3-7.6c-2.2-2.2-4.9-3.2-8.2-3.2
				c-3.3,0-6,1.1-8.2,3.8C2217.3,1337.3,2215.6,1340.6,2215.6,1344.9L2215.6,1344.9z"/>
		</defs>
		<defs>
			<polygon id="SVGID_91_" points="2295.9,1316.8 2311.2,1316.8 2311.2,1368.7 2318.3,1368.7 2318.3,1382.7 2311.2,1382.7 
				2311.2,1398.9 2295.9,1398.9 2295.9,1382.7 2260.4,1382.7 2260.4,1368.7 2295.9,1316.8 			"/>
		</defs>
		<defs>
			<polygon id="SVGID_92_" points="2295.9,1368.7 2295.9,1341.7 2277.3,1368.7 2295.9,1368.7 			"/>
		</defs>
		<defs>
			<path id="SVGID_93_" d="M2351,1401.6l-13.1-6.5l14.2-27.5c-7.1,0-12.6-2.7-17.5-7.6c-4.9-4.9-7.1-10.8-7.1-18.4
				c0-7,2.7-13,7.6-17.8c4.9-4.9,10.9-7.6,18-7.6c7.1,0,13.6,2.7,18.6,7.6c4.9,4.9,7.1,10.8,7.1,17.3c0,2.7-0.6,4.9-1.1,7.6
				c-0.5,2.7-2.7,6.5-5.5,11.3L2351,1401.6L2351,1401.6z"/>
		</defs>
		<defs>
			<path id="SVGID_94_" d="M2352.6,1353c2.7,0,5.5-1.1,7.1-3.2c2.2-2.2,2.7-4.9,2.7-7.6c0-3.2-1.1-5.9-3.3-8.1
				c-2.2-2.2-4.4-3.2-7.1-3.2c-2.7,0-5.5,1.1-7.6,3.2c-2.2,2.2-3.3,4.9-3.3,8.1c0,3.2,1.1,5.9,3.3,7.6
				C2347.2,1351.9,2349.9,1353,2352.6,1353L2352.6,1353z"/>
		</defs>
		<defs>
			<path id="SVGID_95_" d="M2401.2,1319h38.2v14h-26.7l-3.3,14.6c1.1,0,1.6-0.5,2.7-0.5h2.7c7.1,0,13.6,2.7,18.6,7.6
				c4.9,4.9,7.1,11.3,7.1,18.9c0,8.1-2.7,14.6-8.2,20c-5.5,5.4-12,8.1-19.7,8.1c-7.1,0-13.1-2.2-18-5.9c-4.9-3.8-8.2-9.2-9.8-16.2
				h16.4c1.1,2.7,2.7,4.3,4.9,5.9c2.2,1.1,4.4,2.2,6.5,2.2c3.3,0,6.5-1.1,8.7-3.8c2.2-2.2,3.8-5.4,3.8-9.2c0-3.8-1.1-6.5-3.3-9.2
				c-2.2-2.2-4.9-3.8-8.2-3.8c-1.6,0-3.3,0.5-4.9,1.1c-1.6,1.1-3.3,2.2-4.9,3.8l-12.6-2.7L2401.2,1319L2401.2,1319z"/>
		</defs>
		<defs>
			<polygon id="SVGID_96_" points="2482,1316.8 2497.3,1316.8 2497.3,1368.7 2504.4,1368.7 2504.4,1382.7 2497.3,1382.7 
				2497.3,1398.9 2482,1398.9 2482,1382.7 2446.5,1382.7 2446.5,1368.7 2482,1316.8 			"/>
		</defs>
		<defs>
			<polygon id="SVGID_97_" points="2482.6,1368.7 2482.6,1341.7 2464,1368.7 2482.6,1368.7 			"/>
		</defs>
		<defs>
			<path id="SVGID_98_" d="M2042.6,1422.6l13.1,6.5l-14.2,27.5c7.1,0,12.6,2.7,17.5,7.6c4.9,4.9,7.1,10.8,7.1,18.4
				c0,7-2.7,12.9-7.6,17.8s-10.9,7.6-18,7.6c-7.1,0-13.6-2.7-18.6-7.6s-7.1-10.8-7.1-17.3c0-2.7,0.5-4.9,1.1-7.6
				c0.5-2.7,2.7-6.5,5.5-11.9L2042.6,1422.6L2042.6,1422.6z"/>
		</defs>
		<defs>
			<path id="SVGID_99_" d="M2040.4,1471.2c-2.7,0-5.5,1.1-7.1,3.2c-2.2,2.2-2.7,4.9-2.7,7.6c0,3.2,1.1,5.9,3.3,7.6
				c2.2,2.2,4.4,3.2,7.1,3.2c2.7,0,5.5-1.1,7.6-3.2c2.2-2.2,3.3-4.9,3.3-8.1c0-3.2-1.1-5.9-3.3-7.6
				C2045.9,1472.3,2043.7,1471.2,2040.4,1471.2L2040.4,1471.2z"/>
		</defs>
		<defs>
			<path id="SVGID_100_" d="M2120.1,1461.5c3.8,2.2,6.6,5.4,8.7,9.2c2.2,3.8,3.3,7.6,3.3,11.9c0,4.9-1.1,9.2-3.3,12.9
				c-2.2,3.8-5.5,7-9.3,8.6c-3.8,2.2-8.7,3.2-15.3,3.2c-6.6,0-12-1.1-15.8-2.7c-3.8-2.2-7.1-4.9-9.3-8.6c-2.2-3.8-3.3-8.1-3.3-13
				c0-4.3,1.1-8.1,2.7-11.3c1.6-3.2,4.9-6.5,8.2-9.2c-2.2-2.7-4.4-4.9-5.5-7.6c-1.1-2.7-1.6-5.4-1.6-8.6c0-4.3,1.1-8.1,3.3-11.3
				c2.2-3.2,4.9-5.9,8.7-8.1c3.8-2.2,8.2-2.7,12.6-2.7c4.9,0,8.7,1.1,12.6,2.7c3.8,2.2,6.6,4.9,8.7,8.1c2.2,3.8,3.3,7.6,3.3,11.3
				c0,2.7-0.5,5.4-1.6,8.1C2125,1455.6,2122.8,1458.8,2120.1,1461.5L2120.1,1461.5z"/>
		</defs>
		<defs>
			<path id="SVGID_101_" d="M2102.6,1437.8c-2.7,0-4.4,1.1-6,2.7c-1.6,1.6-2.7,3.8-2.7,6.5c0,2.7,1.1,4.9,2.7,6.5
				c1.6,1.6,3.8,2.7,6.5,2.7c2.7,0,4.9-1.1,6.6-2.7s2.7-3.8,2.7-6.5c0-2.7-1.1-4.9-2.7-6.5
				C2108.1,1438.3,2105.4,1437.8,2102.6,1437.8L2102.6,1437.8z"/>
		</defs>
		<defs>
			<path id="SVGID_102_" d="M2103.7,1469.6c-3.8,0-7.1,1.1-9.3,3.2c-2.7,2.2-3.8,4.9-3.8,8.1c0,3.2,1.1,5.9,3.8,8.1
				c2.2,2.2,5.5,3.2,9.3,3.2c3.8,0,7.1-1.1,9.3-3.2c2.2-2.2,3.3-4.9,3.3-8.1c0-3.2-1.1-5.9-3.8-8.1
				C2110.3,1470.7,2107,1469.6,2103.7,1469.6L2103.7,1469.6z"/>
		</defs>
		<defs>
			<path id="SVGID_103_" d="M2166.5,1422.6l13.1,6.5l-14.2,27.5c7.1,0,12.6,2.7,17.5,7.6c4.9,4.9,7.1,10.8,7.1,18.4
				c0,7-2.7,12.9-7.6,17.8s-10.9,7.6-18,7.6c-7.1,0-13.6-2.7-18.6-7.6c-4.9-4.9-7.1-10.8-7.1-17.3c0-2.7,0.5-4.9,1.1-7.6
				c0.5-2.7,2.7-6.5,5.5-11.9L2166.5,1422.6L2166.5,1422.6z"/>
		</defs>
		<defs>
			<path id="SVGID_104_" d="M2164.9,1471.2c-2.7,0-5.5,1.1-7.1,3.2c-2.2,2.2-2.7,4.9-2.7,7.6c0,3.2,1.1,5.9,3.3,7.6
				c2.2,2.2,4.4,3.2,7.1,3.2c2.7,0,5.5-1.1,7.6-3.2c2.2-2.2,3.3-4.9,3.3-8.1c0-3.2-1.1-5.9-3.3-7.6
				C2170.3,1472.3,2167.6,1471.2,2164.9,1471.2L2164.9,1471.2z"/>
		</defs>
		<defs>
			<polygon id="SVGID_105_" points="2519.7,1424.8 2573.2,1424.8 2573.2,1432.9 2536.6,1507.4 2523.5,1500.9 2554.1,1438.8 
				2519.7,1438.8 2519.7,1424.8 			"/>
		</defs>
		<defs>
			<polygon id="SVGID_106_" points="2612.5,1422.6 2627.8,1422.6 2627.8,1474.5 2634.9,1474.5 2634.9,1488.5 2627.8,1488.5 
				2627.8,1504.7 2612.5,1504.7 2612.5,1488.5 2577,1488.5 2577,1474.5 2612.5,1422.6 			"/>
		</defs>
		<defs>
			<polygon id="SVGID_107_" points="2613,1474.5 2613,1447.5 2594.5,1474.5 2613,1474.5 			"/>
		</defs>
		<defs>
			<path id="SVGID_108_" d="M2669.8,1422.6l13.1,6.5l-14.2,27.5c7.1,0,12.6,2.7,17.5,7.6c4.9,4.9,7.1,10.8,7.1,18.4
				c0,7-2.7,12.9-7.6,17.8c-4.9,4.9-10.9,7.6-18,7.6s-13.6-2.7-18.6-7.6c-4.9-4.9-7.1-10.8-7.1-17.3c0-2.7,0.5-4.9,1.1-7.6
				c0.5-2.7,2.7-6.5,5.5-11.9L2669.8,1422.6L2669.8,1422.6z"/>
		</defs>
		<defs>
			<path id="SVGID_109_" d="M2668.2,1471.2c-2.7,0-5.5,1.1-7.1,3.2c-2.2,2.2-2.7,4.9-2.7,7.6c0,3.2,1.1,5.9,3.3,7.6
				c2.2,2.2,4.4,3.2,7.1,3.2c2.7,0,5.5-1.1,7.6-3.2c2.2-2.2,3.3-4.9,3.3-8.1c0-3.2-1.1-5.9-3.3-7.6
				C2673.6,1472.3,2670.9,1471.2,2668.2,1471.2L2668.2,1471.2z"/>
		</defs>
		<defs>
			<path id="SVGID_110_" d="M2718.4,1424.8h38.2v14h-26.7l-3.3,14.6c1.1,0,1.6-0.5,2.7-0.5h2.7c7.1,0,13.6,2.7,18.6,7.6
				c4.9,4.9,7.1,11.3,7.1,18.9c0,8.1-2.7,14.6-8.2,20c-5.5,5.4-12,8.1-19.7,8.1c-7.1,0-13.1-2.2-18-5.9c-4.9-3.8-8.2-9.2-9.8-16.2
				h16.4c1.1,2.7,2.7,4.3,4.9,5.9c2.2,1.1,4.4,2.2,6.6,2.2c3.3,0,6.5-1.1,8.7-3.8c2.2-2.2,3.8-5.4,3.8-9.2c0-3.8-1.1-6.5-3.3-9.2
				c-2.2-2.2-4.9-3.8-8.2-3.8c-1.6,0-3.3,0.5-4.9,1.1c-1.6,1.1-3.3,2.2-4.9,3.8l-12.6-2.7L2718.4,1424.8L2718.4,1424.8z"/>
		</defs>
		<defs>
			<path id="SVGID_111_" d="M2781.1,1450.7h-15.3c0.5-8.6,3.3-15.7,8.2-20.5c4.9-4.9,11.5-7.6,19.7-7.6c4.9,0,9.3,1.1,13.1,3.2
				c3.8,2.2,6.5,4.9,9.3,8.6c2.2,3.8,3.3,8.1,3.3,11.9c0,4.9-1.6,9.7-4.4,15.7c-2.7,5.4-7.6,11.9-15.3,19.4l-9.3,9.7h28.9v14h-56.2
				v-7.6l25.1-25.4c6-5.9,10.4-10.8,12-14.6c2.2-3.8,3.3-7,3.3-10.3c0-3.2-1.1-5.4-3.3-7.6c-2.2-2.2-4.9-3.2-8.2-3.2s-6,1.1-8.2,3.8
				C2782.2,1443.2,2781.1,1446.4,2781.1,1450.7L2781.1,1450.7z"/>
		</defs>
		<defs>
			<path id="SVGID_112_" d="M2041,1528.4c6,0,10.9,1.6,15.3,4.3c4.4,2.7,7.6,7,9.8,13c2.2,5.9,3.3,14,3.3,24.8
				c0,10.8-1.1,18.9-3.8,24.8c-2.2,5.9-5.5,10.3-9.8,13c-3.8,2.7-9.3,4.3-15.3,4.3c-6,0-11.5-1.6-15.3-4.3c-4.4-2.7-7.6-7-9.8-13
				c-2.2-5.9-3.3-14-3.3-24.3c0-14.6,2.2-25.4,7.1-31.8C2024.6,1532.2,2032.2,1528.4,2041,1528.4L2041,1528.4z"/>
		</defs>
		<defs>
			<path id="SVGID_113_" d="M2041.5,1543c-2.7,0-4.9,0.5-7.1,2.7c-2.2,1.6-3.8,4.3-4.9,8.6c-0.5,3.8-1.1,9.7-1.1,17.8
				c0,10.3,1.1,17.3,3.8,21c2.2,3.8,5.5,5.9,9.3,5.9c3.8,0,6.5-1.6,8.7-5.4c2.7-4.3,3.8-11.9,3.8-22.1c0-10.3-1.1-17.8-3.8-21.6
				C2048.6,1545.2,2045.3,1543,2041.5,1543L2041.5,1543z"/>
		</defs>
		<defs>
			<path id="SVGID_114_" d="M2104.8,1528.4l13.1,6.5l-14.2,27.5c7.1,0,12.6,2.7,17.5,7.6c4.9,4.9,7.1,10.8,7.1,18.4
				c0,7-2.7,13-7.6,17.8c-4.9,4.9-10.9,7.6-18,7.6c-7.1,0-13.7-2.7-18.6-7.6c-4.9-4.9-7.1-10.8-7.1-17.3c0-2.7,0.5-4.9,1.1-7.6
				c0.5-2.7,2.7-6.5,5.5-11.9L2104.8,1528.4L2104.8,1528.4z"/>
		</defs>
		<defs>
			<path id="SVGID_115_" d="M2102.6,1577c-2.7,0-5.5,1.1-7.1,3.2c-2.2,2.2-2.7,4.9-2.7,7.6c0,3.2,1.1,5.9,3.3,7.6
				c2.2,2.2,4.4,3.2,7.1,3.2c2.7,0,5.5-1.1,7.6-3.2c2.2-2.2,3.3-4.9,3.3-8.1c0-3.2-1.1-5.9-3.3-7.6
				C2108.1,1578.1,2105.9,1577,2102.6,1577L2102.6,1577z"/>
		</defs>
		<defs>
			<path id="SVGID_116_" d="M2164.3,1613.2l-13.1-6.5l14.2-27.5c-7.1,0-12.6-2.7-17.5-7.6c-4.9-4.9-7.1-10.8-7.1-18.4
				c0-7,2.7-13,7.6-17.8c4.9-4.9,10.9-7.6,18-7.6s13.6,2.7,18.6,7.6c4.9,4.9,7.1,10.8,7.1,17.3c0,2.7-0.5,4.9-1.1,7.6
				c-0.5,2.7-2.7,6.5-5.5,11.3L2164.3,1613.2L2164.3,1613.2z"/>
		</defs>
		<defs>
			<path id="SVGID_117_" d="M2166.5,1564.6c2.7,0,5.5-1.1,7.1-3.2c2.2-2.2,2.7-4.9,2.7-7.6c0-3.2-1.1-5.9-3.3-8.1
				c-2.2-2.2-4.4-3.2-7.1-3.2c-2.7,0-5.5,1.1-7.6,3.2c-2.2,2.2-3.3,4.9-3.3,8.1s1.1,5.9,3.3,7.6
				C2161,1563.5,2163.2,1564.6,2166.5,1564.6L2166.5,1564.6z"/>
		</defs>
		<defs>
			<polygon id="SVGID_118_" points="2203.1,1530.6 2256.6,1530.6 2256.6,1538.7 2219.5,1613.2 2206.4,1606.7 2236.9,1544.6 
				2203.1,1544.6 2203.1,1530.6 			"/>
		</defs>
		<defs>
			<path id="SVGID_119_" d="M2534.4,1550.6h-14.7c0.5-5.9,2.7-10.8,6.6-14c4.9-4.9,10.9-7.6,18.6-7.6c6.6,0,12,2.2,16.9,6.5
				c4.4,4.3,6.6,9.2,6.6,15.1c0,3.8-1.1,7-2.7,9.7c-2.2,2.7-4.9,5.4-8.7,7c4.9,1.6,8.7,3.8,11.5,7.6c2.7,3.8,4.4,8.1,4.4,13
				c0,7-2.7,13.5-8.2,18.4c-5.5,4.9-12,7.6-20.7,7.6c-7.6,0-14.2-2.2-19.1-7c-4.9-4.9-7.6-11.3-8.2-19.4h15.3c0.5,4.3,2.2,7,4.4,9.2
				c2.2,2.2,4.9,3.2,8.7,3.2c3.8,0,6.6-1.1,8.7-3.2c2.2-2.2,3.8-4.9,3.8-8.6c0-3.8-1.6-6.5-4.9-9.2c-3.3-2.7-7.6-3.8-13.6-3.8v-13
				c3.8-0.5,6.6-1.1,8.2-1.6c1.6-1.1,3.3-2.2,4.4-3.8c1.1-1.6,1.6-3.2,1.6-4.9c0-2.2-0.5-3.8-2.2-5.4c-1.6-1.6-3.8-2.2-6-2.2
				c-2.2,0-4.4,0.5-6,2.2C2536.6,1546.8,2535,1548.4,2534.4,1550.6L2534.4,1550.6z"/>
		</defs>
		<defs>
			<path id="SVGID_120_" d="M2595,1556.5h-15.3c0.5-8.6,3.3-15.7,8.2-20.5c4.9-4.9,11.5-7.6,19.6-7.6c4.9,0,9.3,1.1,13.1,3.2
				c3.8,2.2,6.6,4.9,9.3,8.6c2.2,3.8,3.3,8.1,3.3,11.9c0,4.9-1.6,9.7-4.4,15.7c-2.7,5.4-7.6,11.9-15.3,19.4l-9.3,9.7h28.9v14H2577
				v-7.6l25.1-25.4c6-5.9,10.4-10.8,12-14.6c2.2-3.8,3.3-7,3.3-10.3c0-3.2-1.1-5.4-3.3-7.6c-2.2-2.2-4.9-3.2-8.2-3.2s-6,1.1-8.2,3.8
				C2596.1,1549,2595,1552.7,2595,1556.5L2595,1556.5z"/>
		</defs>
		<defs>
			<path id="SVGID_121_" d="M2668.7,1528.4c6,0,10.9,1.6,15.3,4.3c4.4,2.7,7.6,7,9.8,13c2.2,5.9,3.3,14,3.3,24.8
				c0,10.8-1.1,18.9-3.8,24.8c-2.2,5.9-5.5,10.3-9.8,13c-3.8,2.7-9.3,4.3-15.3,4.3c-6,0-11.5-1.6-15.3-4.3c-4.4-2.7-7.6-7-9.8-13
				c-2.2-5.9-3.3-14-3.3-24.3c0-14.6,2.2-25.4,7.1-31.8C2652.3,1532.2,2659.4,1528.4,2668.7,1528.4L2668.7,1528.4z"/>
		</defs>
		<defs>
			<path id="SVGID_122_" d="M2669.2,1543c-2.7,0-4.9,0.5-7.1,2.7c-2.2,1.6-3.8,4.3-4.4,8.6c-1.1,3.8-1.6,9.7-1.6,17.8
				c0,10.3,1.1,17.3,3.8,21c2.2,3.8,5.5,5.9,9.3,5.9c3.8,0,6.6-1.6,8.7-5.4c2.7-4.3,3.8-11.9,3.8-22.1c0-10.3-1.1-17.8-3.8-21.6
				C2675.8,1545.2,2673.1,1543,2669.2,1543L2669.2,1543z"/>
		</defs>
		<defs>
			<path id="SVGID_123_" d="M2732,1528.4l13.1,6.5l-14.2,27.5c7.1,0,12.6,2.7,17.5,7.6c4.9,4.9,7.1,10.8,7.1,18.4
				c0,7-2.7,13-7.6,17.8c-4.9,4.9-10.9,7.6-18,7.6c-7.1,0-13.6-2.7-18.6-7.6c-4.9-4.9-7.1-10.8-7.1-17.3c0-2.7,0.5-4.9,1.1-7.6
				c0.5-2.7,2.7-6.5,5.5-11.9L2732,1528.4L2732,1528.4z"/>
		</defs>
		<defs>
			<path id="SVGID_124_" d="M2730.4,1577c-2.7,0-5.5,1.1-7.1,3.2c-2.2,2.2-2.7,4.9-2.7,7.6c0,3.2,1.1,5.9,3.3,7.6
				c2.2,2.2,4.4,3.2,7.1,3.2c2.7,0,5.5-1.1,7.6-3.2c2.2-2.2,3.3-4.9,3.3-8.1c0-3.2-1.1-5.9-3.3-7.6
				C2735.8,1578.1,2733.1,1577,2730.4,1577L2730.4,1577z"/>
		</defs>
		<defs>
			<path id="SVGID_125_" d="M2031.1,1656.4h-14.7c0.5-5.9,2.7-10.8,6.6-14c4.9-4.9,10.9-7.6,18.6-7.6c6.5,0,12,2.2,16.9,6.5
				c4.4,4.3,6.5,9.2,6.5,15.1c0,3.8-1.1,7-2.7,9.7c-2.2,2.7-4.9,5.4-8.7,7c4.9,1.6,8.7,3.8,11.5,7.6c2.7,3.8,4.4,8.1,4.4,13
				c0,7-2.7,13.5-8.2,18.4c-5.5,4.9-12,7.6-20.7,7.6c-7.6,0-14.2-2.2-19.1-7c-4.9-4.9-7.6-11.3-8.2-19.4h15.3c0.6,4.3,2.2,7,4.4,9.2
				c2.2,2.2,4.9,3.2,8.7,3.2c3.8,0,6.5-1.1,8.7-3.2c2.2-2.2,3.8-4.9,3.8-8.6c0-3.8-1.6-6.5-4.9-9.2c-3.3-2.7-7.6-3.8-13.7-3.8v-13
				c3.8-0.5,6.6-1.1,8.2-1.6c1.6-1.1,3.3-2.2,4.4-3.8c1.1-1.6,1.6-3.2,1.6-4.9c0-2.2-0.5-3.8-2.2-5.4c-1.6-1.6-3.8-2.2-6-2.2
				c-2.2,0-4.4,0.5-6,2.2C2033.3,1652.6,2031.7,1654.2,2031.1,1656.4L2031.1,1656.4z"/>
		</defs>
		<defs>
			<path id="SVGID_126_" d="M2104.8,1634.8l13.1,6.5l-14.2,27.5c7.1,0,12.6,2.7,17.5,7.6c4.9,4.9,7.1,10.8,7.1,18.4
				c0,7-2.7,13-7.6,17.8c-4.9,4.9-10.9,7.6-18,7.6c-7.1,0-13.7-2.7-18.6-7.6c-4.9-4.9-7.1-10.8-7.1-17.3c0-2.7,0.5-4.9,1.1-7.6
				c0.5-2.7,2.7-6.5,5.5-11.9L2104.8,1634.8L2104.8,1634.8z"/>
		</defs>
		<defs>
			<path id="SVGID_127_" d="M2102.6,1682.8c-2.7,0-5.5,1.1-7.1,3.2c-2.2,2.2-2.7,4.9-2.7,7.6c0,3.2,1.1,5.9,3.3,7.6
				c2.2,2.2,4.4,3.2,7.1,3.2c2.7,0,5.5-1.1,7.6-3.2c2.2-2.2,3.3-4.9,3.3-8.1c0-3.2-1.1-5.9-3.3-7.6
				C2108.1,1683.9,2105.9,1682.8,2102.6,1682.8L2102.6,1682.8z"/>
		</defs>
		<defs>
			<path id="SVGID_128_" d="M2217.8,1650.5l-10.9,10.3c-7.6-7.6-15.8-11.3-25.1-11.3c-7.6,0-14.2,2.7-19.6,8.1
				c-5.5,5.4-8.2,11.9-8.2,19.4c0,5.4,1.1,10.3,3.8,14c2.2,4.3,5.5,7.6,9.8,9.7c4.4,2.2,9.3,3.8,14.2,3.8c4.4,0,8.7-1.1,12.6-2.7
				c3.8-1.6,7.6-4.9,12-9.2l10.4,10.8c-6,5.9-11.5,9.7-16.9,11.9c-5.5,2.2-11.5,3.2-18,3.2c-12.6,0-22.9-3.8-31.1-11.9
				c-8.2-8.1-12-18.4-12-30.2c0-8.1,1.6-15.1,5.5-21.6c3.8-6.5,8.7-11.3,15.8-15.1c6.6-3.8,14.2-5.9,22.4-5.9
				c6.5,0,13.1,1.6,19.1,4.3C2208,1641.8,2213.4,1645.6,2217.8,1650.5L2217.8,1650.5z"/>
		</defs>
		<defs>
			<path id="SVGID_129_" d="M2253.8,1634.8l13.1,6.5l-14.2,27.5c7.1,0,12.6,2.7,17.5,7.6c4.9,4.9,7.1,10.8,7.1,18.4
				c0,7-2.7,13-7.6,17.8c-4.9,4.9-10.9,7.6-18,7.6c-7.1,0-13.7-2.7-18.6-7.6c-4.9-4.9-7.1-10.8-7.1-17.3c0-2.7,0.5-4.9,1.1-7.6
				c0.5-2.7,2.7-6.5,5.5-11.9L2253.8,1634.8L2253.8,1634.8z"/>
		</defs>
		<defs>
			<path id="SVGID_130_" d="M2251.7,1682.8c-2.7,0-5.5,1.1-7.1,3.2c-2.2,2.2-2.7,4.9-2.7,7.6c0,3.2,1.1,5.9,3.3,7.6
				c2.2,2.2,4.4,3.2,7.1,3.2c2.7,0,5.5-1.1,7.6-3.2c2.2-2.2,3.3-4.9,3.3-8.1c0-3.2-1.1-5.9-3.3-7.6
				C2257.1,1683.9,2254.9,1682.8,2251.7,1682.8L2251.7,1682.8z"/>
		</defs>
		<defs>
			<path id="SVGID_131_" d="M2301.9,1636.4h38.2v14h-26.7l-3.3,14.6c1.1-0.5,1.6-0.5,2.7-0.5h2.7c7.1,0,13.6,2.7,18.6,7.6
				c4.9,4.9,7.1,11.3,7.1,18.9c0,8.1-2.7,14.6-8.2,20c-5.5,5.4-12,8.1-19.6,8.1c-7.1,0-13.1-2.2-18-5.9c-4.9-3.8-8.2-9.2-9.8-16.2
				h16.4c1.1,2.7,2.7,4.3,4.9,5.9c2.2,1.1,4.4,2.2,6.6,2.2c3.3,0,6.5-1.1,8.7-3.8c2.2-2.2,3.8-5.4,3.8-9.2c0-3.8-1.1-6.5-3.3-9.2
				c-2.2-2.2-4.9-3.8-8.2-3.8c-1.6,0-3.3,0.5-4.9,1.1c-1.6,1.1-3.3,2.2-4.9,3.8l-12.6-2.7L2301.9,1636.4L2301.9,1636.4z"/>
		</defs>
		<defs>
			<path id="SVGID_132_" d="M2377.8,1634.8l13.1,6.5l-14.2,27.5c7.1,0,12.6,2.7,17.5,7.6c4.9,4.9,7.1,10.8,7.1,18.4
				c0,7-2.7,13-7.6,17.8c-4.9,4.9-10.9,7.6-18,7.6c-7.1,0-13.6-2.7-18.6-7.6c-4.9-4.9-7.1-10.8-7.1-17.3c0-2.7,0.6-4.9,1.1-7.6
				c0.5-2.7,2.7-6.5,5.5-11.9L2377.8,1634.8L2377.8,1634.8z"/>
		</defs>
		<defs>
			<path id="SVGID_133_" d="M2376.1,1682.8c-2.7,0-5.5,1.1-7.1,3.2c-2.2,2.2-2.7,4.9-2.7,7.6c0,3.2,1.1,5.9,3.3,7.6
				c2.2,2.2,4.4,3.2,7.1,3.2c2.7,0,5.5-1.1,7.6-3.2c2.2-2.2,3.3-4.9,3.3-8.1c0-3.2-1.1-5.9-3.3-7.6
				C2381.6,1683.9,2378.8,1682.8,2376.1,1682.8L2376.1,1682.8z"/>
		</defs>
		<defs>
			<polygon id="SVGID_134_" points="2425.8,1636.4 2448.7,1636.4 2448.7,1716.9 2433.4,1716.9 2433.4,1651 2416.5,1651 
				2425.8,1636.4 			"/>
		</defs>
		<defs>
			<polygon id="SVGID_135_" points="2476,1636.4 2529.5,1636.4 2529.5,1644.5 2492.9,1719 2479.8,1712.5 2510.4,1650.5 2476,1650.5 
				2476,1636.4 			"/>
		</defs>
		<defs>
			<path id="SVGID_136_" d="M2551.3,1662.3h-15.3c0.5-8.6,3.3-15.7,8.2-20.5c4.9-4.9,11.5-7.6,19.7-7.6c4.9,0,9.3,1.1,13.1,3.2
				c3.8,2.2,6.6,4.9,9.3,8.6c2.2,3.8,3.3,8.1,3.3,11.9c0,4.9-1.6,9.7-4.4,15.7c-2.7,5.4-7.6,11.9-15.3,19.4l-9.3,9.7h28.9v14h-55.7
				v-7.6l25.1-25.4c6-5.9,10.4-10.8,12-14.6c2.2-3.8,3.3-7,3.3-10.3c0-3.2-1.1-5.4-3.3-7.6c-2.2-2.2-4.9-3.2-8.2-3.2
				c-3.3,0-6,1.1-8.2,3.8C2552.4,1654.8,2551.3,1658.6,2551.3,1662.3L2551.3,1662.3z"/>
		</defs>
		<defs>
			<path id="SVGID_137_" d="M2613.6,1662.3h-15.3c0.5-8.6,3.3-15.7,8.2-20.5c4.9-4.9,11.5-7.6,19.6-7.6c4.9,0,9.3,1.1,13.1,3.2
				c3.8,2.2,6.5,4.9,9.3,8.6c2.2,3.8,3.3,8.1,3.3,11.9c0,4.9-1.6,9.7-4.4,15.7c-2.7,5.4-7.6,11.9-15.3,19.4l-9.3,9.7h28.9v14h-55.7
				v-7.6l25.1-25.4c6-5.9,10.4-10.8,12-14.6c2.2-3.8,3.3-7,3.3-10.3c0-3.2-1.1-5.4-3.3-7.6c-2.2-2.2-4.9-3.2-8.2-3.2
				c-3.3,0-6,1.1-8.2,3.8C2614.7,1654.8,2613.6,1658.6,2613.6,1662.3L2613.6,1662.3z"/>
		</defs>
		<defs>
			<path id="SVGID_138_" d="M2041,1740.6c6,0,10.9,1.6,15.3,4.3c4.4,2.7,7.6,7,9.8,13c2.2,5.9,3.3,14,3.3,24.8
				c0,10.8-1.1,18.9-3.8,24.8c-2.2,5.9-5.5,10.3-9.8,13c-3.8,2.7-9.3,4.3-15.3,4.3c-6,0-11.5-1.6-15.3-4.3c-4.4-2.7-7.6-7-9.8-13
				c-2.2-5.9-3.3-14-3.3-24.3c0-14.6,2.2-25.4,7.1-31.9C2024.6,1743.9,2032.2,1740.6,2041,1740.6L2041,1740.6z"/>
		</defs>
		<defs>
			<path id="SVGID_139_" d="M2041.5,1755.2c-2.7,0-4.9,0.5-7.1,2.7c-2.2,1.6-3.8,4.3-4.9,8.6c-1.1,3.8-1.6,9.7-1.6,17.8
				c0,10.3,1.1,17.3,3.8,21.1c2.2,3.8,5.5,5.9,9.3,5.9c3.8,0,6.6-1.6,8.7-5.4c2.7-4.3,3.8-11.9,3.8-22.1c0-10.3-1.1-17.8-3.8-21.6
				C2048.6,1756.8,2045.3,1755.2,2041.5,1755.2L2041.5,1755.2z"/>
		</defs>
		<defs>
			<polygon id="SVGID_140_" points="2140.9,1742.2 2194.3,1742.2 2194.3,1750.3 2157.8,1824.8 2144.7,1818.4 2175.2,1756.3 
				2140.9,1756.3 2140.9,1742.2 			"/>
		</defs>
		<defs>
			<path id="SVGID_141_" d="M2228.7,1740.6l13.1,6.5l-14.2,27.5c7.1,0,12.6,2.7,17.5,7.6c4.9,4.9,7.1,10.8,7.1,18.4
				c0,7-2.7,13-7.6,17.8c-4.9,4.9-10.9,7.6-18,7.6c-7.1,0-13.6-2.7-18.6-7.6c-4.9-4.9-7.1-10.8-7.1-17.3c0-2.7,0.5-4.9,1.1-7.6
				c0.5-2.7,2.7-6.5,5.5-11.9L2228.7,1740.6L2228.7,1740.6z"/>
		</defs>
		<defs>
			<path id="SVGID_142_" d="M2227.1,1788.7c-2.7,0-5.5,1.1-7.1,3.2c-2.2,2.2-2.7,4.9-2.7,7.6c0,3.2,1.1,5.9,3.3,7.6
				c2.2,2.2,4.4,3.2,7.1,3.2c2.7,0,5.5-1.1,7.6-3.2c2.2-2.2,3.3-4.9,3.3-8.1c0-3.2-1.1-5.9-3.3-7.6
				C2232.6,1789.7,2229.8,1788.7,2227.1,1788.7L2227.1,1788.7z"/>
		</defs>
		<defs>
			<path id="SVGID_143_" d="M2306.2,1779.5c3.8,2.2,6.5,5.4,8.7,9.2c2.2,3.8,3.3,7.6,3.3,11.9c0,4.9-1.1,9.2-3.3,13
				c-2.2,3.8-5.5,7-9.3,8.6c-3.8,2.2-8.7,3.2-15.3,3.2c-6.6,0-12-1.1-15.8-2.7c-3.8-2.2-7.1-4.9-9.3-8.6c-2.2-3.8-3.3-8.1-3.3-13
				c0-4.3,1.1-8.1,2.7-11.3s4.9-6.5,8.2-9.2c-2.2-2.7-4.4-4.9-5.5-7.6c-1.1-2.7-1.6-5.4-1.6-8.6c0-4.3,1.1-8.1,3.3-11.3
				c2.2-3.2,4.9-5.9,8.7-8.1c3.8-2.2,8.2-2.7,12.6-2.7c4.9,0,8.7,1.1,12.6,2.7c3.8,2.2,6.6,4.9,8.7,8.1c2.2,3.8,3.3,7.6,3.3,11.3
				c0,2.7-0.5,5.4-1.6,8.1C2311.2,1773.5,2309.5,1776.2,2306.2,1779.5L2306.2,1779.5z"/>
		</defs>
		<defs>
			<path id="SVGID_144_" d="M2289.3,1755.2c-2.7,0-4.4,1.1-6,2.7c-1.6,1.6-2.7,3.8-2.7,6.5c0,2.7,1.1,4.9,2.7,6.5
				c1.6,1.6,3.8,2.7,6.5,2.7c2.7,0,4.9-1.1,6.5-2.7c1.6-1.6,2.7-3.8,2.7-6.5c0-2.7-1.1-4.9-2.7-6.5
				C2294.2,1756.3,2292.1,1755.2,2289.3,1755.2L2289.3,1755.2z"/>
		</defs>
		<defs>
			<path id="SVGID_145_" d="M2289.9,1787.6c-3.8,0-7.1,1.1-9.3,3.2c-2.7,2.2-3.8,4.9-3.8,8.1c0,3.2,1.1,5.9,3.8,8.1
				c2.2,2.2,5.5,3.2,9.3,3.2c3.8,0,7.1-1.1,9.3-3.2c2.2-2.2,3.3-4.9,3.3-8.1c0-3.2-1.1-5.9-3.8-8.1
				C2296.4,1788.7,2293.7,1787.6,2289.9,1787.6L2289.9,1787.6z"/>
		</defs>
		<defs>
			<path id="SVGID_146_" d="M2353.2,1740.6l13.1,6.5l-14.2,27.5c7.1,0,12.5,2.7,17.5,7.6c4.9,4.9,7.1,10.8,7.1,18.4
				c0,7-2.7,13-7.6,17.8c-4.9,4.9-10.9,7.6-18,7.6c-7.1,0-13.6-2.7-18.6-7.6c-4.9-4.9-7.1-10.8-7.1-17.3c0-2.7,0.5-4.9,1.1-7.6
				c0.6-2.7,2.7-6.5,5.5-11.9L2353.2,1740.6L2353.2,1740.6z"/>
		</defs>
		<defs>
			<path id="SVGID_147_" d="M2351,1788.7c-2.7,0-5.5,1.1-7.1,3.2c-2.2,2.2-2.7,4.9-2.7,7.6c0,3.2,1.1,5.9,3.3,7.6
				c2.2,2.2,4.4,3.2,7.1,3.2c2.7,0,5.5-1.1,7.6-3.2c2.2-2.2,3.3-4.9,3.3-8.1c0-3.2-1.1-5.9-3.3-7.6
				C2356.5,1789.7,2354.3,1788.7,2351,1788.7L2351,1788.7z"/>
		</defs>
		<defs>
			<polygon id="SVGID_148_" points="2451.4,1742.2 2504.9,1742.2 2504.9,1750.3 2468.4,1824.8 2455.3,1818.4 2485.8,1756.3 
				2452,1756.3 2452,1742.2 2451.4,1742.2 			"/>
		</defs>
		<defs>
			<polygon id="SVGID_149_" points="2544.2,1740.6 2559.5,1740.6 2559.5,1792.4 2566.6,1792.4 2566.6,1806.5 2559.5,1806.5 
				2559.5,1822.7 2544.2,1822.7 2544.2,1806.5 2508.8,1806.5 2508.8,1792.4 2544.2,1740.6 			"/>
		</defs>
		<defs>
			<polygon id="SVGID_150_" points="2544.2,1792.4 2544.2,1765.4 2525.7,1792.4 2544.2,1792.4 			"/>
		</defs>
		<defs>
			<path id="SVGID_151_" d="M2601.6,1740.6l13.1,6.5l-14.2,27.5c7.1,0,12.6,2.7,17.5,7.6c4.9,4.9,7.1,10.8,7.1,18.4
				c0,7-2.7,13-7.6,17.8c-4.9,4.9-10.9,7.6-18,7.6c-7.1,0-13.6-2.7-18.6-7.6c-4.9-4.9-7.1-10.8-7.1-17.3c0-2.7,0.5-4.9,1.1-7.6
				c0.5-2.7,2.7-6.5,5.5-11.9L2601.6,1740.6L2601.6,1740.6z"/>
		</defs>
		<defs>
			<path id="SVGID_152_" d="M2599.4,1788.7c-2.7,0-5.5,1.1-7.1,3.2c-2.2,2.2-2.7,4.9-2.7,7.6c0,3.2,1.1,5.9,3.3,7.6
				c2.2,2.2,4.4,3.2,7.1,3.2c2.7,0,5.5-1.1,7.6-3.2c2.2-2.2,3.3-4.9,3.3-8.1c0-3.2-1.1-5.9-3.3-7.6
				C2605.4,1789.7,2602.6,1788.7,2599.4,1788.7L2599.4,1788.7z"/>
		</defs>
		<defs>
			<path id="SVGID_153_" d="M2712.9,1768.7h-15.3c0.5-8.6,3.3-15.7,8.2-20.5c4.9-4.9,11.5-7.6,19.7-7.6c4.9,0,9.3,1.1,13.1,3.2
				c3.8,2.2,6.6,4.9,9.3,8.6c2.2,3.8,3.3,8.1,3.3,11.9c0,4.9-1.6,9.7-4.4,15.7c-2.7,5.4-7.6,11.9-15.3,19.4l-9.3,9.7h28.9v14h-56.2
				v-7.6l25.1-25.4c6-5.9,10.4-10.8,12-14.6c2.2-3.8,3.3-7,3.3-10.3c0-3.2-1.1-5.4-3.3-7.6c-2.2-2.2-4.9-3.2-8.2-3.2
				c-3.3,0-6,1.1-8.2,3.8C2714,1761.1,2712.9,1764.4,2712.9,1768.7L2712.9,1768.7z"/>
		</defs>
		<defs>
			<path id="SVGID_154_" d="M2041,1846.4c6,0,10.9,1.6,15.3,4.3c4.4,2.7,7.6,7,9.8,13c2.2,5.9,3.3,14,3.3,24.8
				c0,10.8-1.1,18.9-3.8,24.8c-2.2,5.9-5.5,10.3-9.8,13c-3.8,2.7-9.3,4.3-15.3,4.3c-6,0-11.5-1.6-15.3-4.3c-4.4-2.7-7.6-7-9.8-13
				c-2.2-5.9-3.3-14-3.3-24.3c0-14.6,2.2-25.4,7.1-31.8C2024.6,1850.2,2032.2,1846.4,2041,1846.4L2041,1846.4z"/>
		</defs>
		<defs>
			<path id="SVGID_155_" d="M2041.5,1861c-2.7,0-4.9,0.5-7.1,2.7c-2.2,1.6-3.8,4.3-4.9,8.6c-1.1,3.8-1.6,9.7-1.6,17.8
				c0,10.3,1.1,17.3,3.8,21.1c2.2,3.8,5.5,5.9,9.3,5.9c3.8,0,6.6-1.6,8.7-5.4c2.7-4.3,3.8-11.9,3.8-22.1c0-10.3-1.1-17.8-3.8-21.6
				C2048.6,1863.2,2045.3,1861,2041.5,1861L2041.5,1861z"/>
		</defs>
		<defs>
			<polygon id="SVGID_156_" points="2109.2,1846.4 2124.5,1846.4 2124.5,1898.2 2132.1,1898.2 2132.1,1912.3 2125,1912.3 
				2125,1928.5 2109.7,1928.5 2109.7,1912.3 2074.3,1912.3 2074.3,1898.2 2109.2,1846.4 			"/>
		</defs>
		<defs>
			<polygon id="SVGID_157_" points="2109.7,1898.2 2109.7,1871.3 2091.2,1898.2 2109.7,1898.2 			"/>
		</defs>
		<defs>
			<path id="SVGID_158_" d="M2153.4,1874.5h-15.3c0.5-8.6,3.3-15.7,8.2-20.5c4.9-4.9,11.5-7.6,19.6-7.6c4.9,0,9.3,1.1,13.1,3.2
				c3.8,2.2,6.6,4.9,9.3,8.6c2.2,3.8,3.3,8.1,3.3,11.9c0,4.9-1.6,9.7-4.4,15.7c-2.7,5.4-7.6,11.9-15.3,19.4l-9.3,9.7h28.9v14h-55.1
				v-7.6l25.1-25.4c6-5.9,10.4-10.8,12-14.6c2.2-3.8,3.3-7,3.3-10.3c0-3.2-1.1-5.4-3.3-7.6c-2.2-2.2-4.9-3.2-8.2-3.2
				c-3.3,0-6,1.1-8.2,3.8C2155,1866.9,2154,1870.2,2153.4,1874.5L2153.4,1874.5z"/>
		</defs>
		<defs>
			<path id="SVGID_159_" d="M2575.4,1930.6l-13.1-6.5l14.2-27.5c-7.1,0-12.6-2.7-17.5-7.6c-4.9-4.9-7.1-10.8-7.1-18.4
				c0-7,2.7-13,7.6-17.8c4.9-4.9,10.9-7.6,18-7.6c7.1,0,13.7,2.7,18.6,7.6c4.9,4.9,7.1,10.8,7.1,17.3c0,2.7-0.5,4.9-1.1,7.6
				c-0.5,2.7-2.7,6.5-5.5,11.3L2575.4,1930.6L2575.4,1930.6z"/>
		</defs>
		<defs>
			<path id="SVGID_160_" d="M2577,1882.6c2.7,0,5.5-1.1,7.1-3.2c2.2-2.2,2.7-4.9,2.7-7.6c0-3.2-1.1-5.9-3.3-8.1
				c-2.2-2.2-4.4-3.2-7.1-3.2c-2.7,0-5.5,1.1-7.6,3.2c-2.2,2.2-3.3,4.9-3.3,8.1c0,3.2,1.1,5.9,3.3,7.6
				C2571.5,1881.5,2574.3,1882.6,2577,1882.6L2577,1882.6z"/>
		</defs>
		<defs>
			<path id="SVGID_161_" d="M2625.6,1848.6h38.2v14H2637l-3.3,14.6c1.1,0,1.6-0.5,2.7-0.5h2.7c7.1,0,13.6,2.7,18.6,7.6
				c4.9,4.9,7.1,11.3,7.1,18.9c0,8.1-2.7,14.6-8.2,20c-5.5,5.4-12,8.1-19.7,8.1c-7.1,0-13.1-2.2-18-5.9c-4.9-3.8-8.2-9.2-9.8-16.2
				h16.4c1.1,2.7,2.7,4.3,4.9,5.9c2.2,1.1,4.4,2.2,6.5,2.2c3.3,0,6.6-1.1,8.7-3.8c2.2-2.2,3.8-5.4,3.8-9.2c0-3.8-1.1-6.5-3.3-9.2
				c-2.2-2.2-4.9-3.8-8.2-3.8c-1.6,0-3.3,0.5-4.9,1.1c-1.6,1.1-3.3,2.2-4.9,3.8l-12.6-2.7L2625.6,1848.6L2625.6,1848.6z"/>
		</defs>
		<defs>
			<polygon id="SVGID_162_" points="2706.4,1846.4 2721.6,1846.4 2721.6,1898.2 2728.7,1898.2 2728.7,1912.3 2721.6,1912.3 
				2721.6,1928.5 2706.4,1928.5 2706.4,1912.3 2670.9,1912.3 2670.9,1898.2 2706.4,1846.4 			"/>
		</defs>
		<defs>
			<polygon id="SVGID_163_" points="2706.9,1898.2 2706.9,1871.3 2688.3,1898.2 2706.9,1898.2 			"/>
		</defs>
		<defs>
			<polygon id="SVGID_164_" points="2016.4,2271.8 2069.9,2271.8 2069.9,2279.9 2033.3,2354.4 2020.2,2347.9 2050.8,2285.9 
				2016.4,2285.9 2016.4,2271.8 			"/>
		</defs>
		<defs>
			<polygon id="SVGID_165_" points="2078.6,2271.8 2132.1,2271.8 2132.1,2279.9 2095.5,2354.4 2082.5,2347.9 2113,2285.9 
				2079.2,2285.9 2079.2,2271.8 2078.6,2271.8 			"/>
		</defs>
		<defs>
			<path id="SVGID_166_" d="M2166.5,2269.7l13.1,6.5l-14.2,27.5c7.1,0,12.6,2.7,17.5,7.6c4.9,4.9,7.1,10.8,7.1,18.4
				c0,7-2.7,13-7.6,17.8s-10.9,7.6-18,7.6c-7.1,0-13.6-2.7-18.6-7.6c-4.9-4.9-7.1-10.8-7.1-17.3c0-2.7,0.5-4.9,1.1-7.6
				c0.5-2.7,2.7-6.5,5.5-11.9L2166.5,2269.7L2166.5,2269.7z"/>
		</defs>
		<defs>
			<path id="SVGID_167_" d="M2164.9,2318.2c-2.7,0-5.5,1.1-7.1,3.2c-2.2,2.2-2.7,4.9-2.7,7.6c0,3.2,1.1,5.9,3.3,7.6
				c2.2,2.2,4.4,3.2,7.1,3.2c2.7,0,5.5-1.1,7.6-3.2c2.2-2.2,3.3-4.9,3.3-8.1c0-3.2-1.1-5.9-3.3-7.6
				C2170.3,2319.3,2167.6,2318.2,2164.9,2318.2L2164.9,2318.2z"/>
		</defs>
		<defs>
			<path id="SVGID_168_" d="M2244.6,2308.5c3.8,2.2,6.6,5.4,8.7,9.2c2.2,3.8,3.3,7.6,3.3,11.9c0,4.9-1.1,9.2-3.3,13
				c-2.2,3.8-5.5,7-9.3,8.6c-3.8,2.2-8.7,3.2-15.3,3.2c-6.6,0-12-1.1-15.8-2.7c-3.8-2.2-7.1-4.9-9.3-8.6c-2.2-3.8-3.3-8.1-3.3-13
				c0-4.3,1.1-8.1,2.7-11.3c1.6-3.2,4.9-6.5,8.2-9.2c-2.2-2.7-4.4-4.8-5.5-7.6c-1.1-2.7-1.6-5.4-1.6-8.6c0-4.3,1.1-8.1,3.3-11.3
				c2.2-3.2,4.9-5.9,8.7-8.1c3.8-2.2,8.2-2.7,12.6-2.7c4.9,0,8.7,1.1,12.6,2.7c3.8,2.2,6.5,4.9,8.7,8.1c2.2,3.8,3.3,7.6,3.3,11.3
				c0,2.7-0.5,5.4-1.6,8.1C2249.5,2303.1,2247.3,2305.8,2244.6,2308.5L2244.6,2308.5z"/>
		</defs>
		<defs>
			<path id="SVGID_169_" d="M2227.1,2284.8c-2.7,0-4.9,1.1-6,2.7c-1.6,1.6-2.7,3.8-2.7,6.5c0,2.7,1.1,4.9,2.7,6.5
				c1.6,1.6,3.8,2.7,6.6,2.7c2.7,0,4.9-1.1,6.6-2.7c1.6-1.6,2.7-3.8,2.7-6.5c0-2.7-1.1-4.9-2.7-6.5
				C2232,2285.3,2229.8,2284.8,2227.1,2284.8L2227.1,2284.8z"/>
		</defs>
		<defs>
			<path id="SVGID_170_" d="M2227.6,2316.6c-3.8,0-7.1,1.1-9.3,3.2c-2.7,2.2-3.8,4.9-3.8,8.1c0,3.2,1.1,5.9,3.8,8.1
				c2.2,2.2,5.5,3.2,9.3,3.2c3.8,0,7.1-1.1,9.3-3.2c2.2-2.2,3.3-4.9,3.3-8.1c0-3.2-1.1-5.9-3.8-8.1
				C2234.7,2318.2,2231.5,2316.6,2227.6,2316.6L2227.6,2316.6z"/>
		</defs>
		<defs>
			<path id="SVGID_171_" d="M2291,2269.7l13.1,6.5l-14.2,27.5c7.1,0,12.6,2.7,17.5,7.6c4.9,4.9,7.1,10.8,7.1,18.4
				c0,7-2.7,13-7.6,17.8c-4.9,4.9-10.9,7.6-18,7.6c-7.1,0-13.6-2.7-18.6-7.6c-4.9-4.9-7.1-10.8-7.1-17.3c0-2.7,0.5-4.9,1.1-7.6
				c0.5-2.7,2.7-6.5,5.5-11.9L2291,2269.7L2291,2269.7z"/>
		</defs>
		<defs>
			<path id="SVGID_172_" d="M2288.8,2318.2c-2.7,0-5.5,1.1-7.1,3.2c-2.2,2.2-2.7,4.9-2.7,7.6c0,3.2,1.1,5.9,3.3,7.6
				c2.2,2.2,4.4,3.2,7.1,3.2c2.7,0,5.5-1.1,7.6-3.2c2.2-2.2,3.3-4.9,3.3-8.1c0-3.2-1.1-5.9-3.3-7.6
				C2294.8,2319.3,2292.1,2318.2,2288.8,2318.2L2288.8,2318.2z"/>
		</defs>
		<defs>
			<path id="SVGID_173_" d="M2351,2354.4l-13.1-6.5l14.2-27.5c-7.1,0-12.6-2.7-17.5-7.6c-4.9-4.9-7.1-10.8-7.1-18.4
				c0-7,2.7-13,7.6-17.8c4.9-4.9,10.9-7.6,18-7.6c7.1,0,13.6,2.7,18.6,7.6c4.9,4.9,7.1,10.8,7.1,17.3c0,2.7-0.6,4.9-1.1,7.6
				c-0.5,2.7-2.7,6.5-5.5,11.3L2351,2354.4L2351,2354.4z"/>
		</defs>
		<defs>
			<path id="SVGID_174_" d="M2352.6,2305.8c2.7,0,5.5-1.1,7.1-3.2c2.2-2.2,2.7-4.9,2.7-7.6c0-3.2-1.1-5.9-3.3-8.1
				c-2.2-2.2-4.4-3.2-7.1-3.2c-2.7,0-5.5,1.1-7.6,3.2c-2.2,2.2-3.3,4.9-3.3,8.1c0,3.2,1.1,5.9,3.3,7.6
				C2347.2,2304.8,2349.9,2305.8,2352.6,2305.8L2352.6,2305.8z"/>
		</defs>
		<defs>
			<polygon id="SVGID_175_" points="2389.2,2271.8 2442.7,2271.8 2442.7,2279.9 2406.1,2354.4 2393,2347.9 2423.6,2285.9 
				2389.8,2285.9 2389.8,2271.8 2389.2,2271.8 			"/>
		</defs>
		<defs>
			<polygon id="SVGID_176_" points="2482,2269.7 2497.3,2269.7 2497.3,2321.5 2504.4,2321.5 2504.4,2335.5 2497.3,2335.5 
				2497.3,2351.7 2482,2351.7 2482,2335.5 2446.5,2335.5 2446.5,2321.5 2482,2269.7 			"/>
		</defs>
		<defs>
			<polygon id="SVGID_177_" points="2482.6,2321.5 2482.6,2294.5 2464,2321.5 2482.6,2321.5 			"/>
		</defs>
		<defs>
			<path id="SVGID_178_" d="M2539.3,2269.7l13.1,6.5l-14.2,27.5c7.1,0,12.6,2.7,17.5,7.6c4.9,4.9,7.1,10.8,7.1,18.4
				c0,7-2.7,13-7.6,17.8s-10.9,7.6-18,7.6c-7.1,0-13.6-2.7-18.6-7.6c-4.9-4.9-7.1-10.8-7.1-17.3c0-2.7,0.5-4.9,1.1-7.6
				c0.5-2.7,2.7-6.5,5.5-11.9L2539.3,2269.7L2539.3,2269.7z"/>
		</defs>
		<defs>
			<path id="SVGID_179_" d="M2537.7,2318.2c-2.7,0-5.5,1.1-7.1,3.2c-2.2,2.2-2.7,4.9-2.7,7.6c0,3.2,1.1,5.9,3.3,7.6
				c2.2,2.2,4.4,3.2,7.1,3.2c2.7,0,5.5-1.1,7.6-3.2c2.2-2.2,3.3-4.9,3.3-8.1c0-3.2-1.1-5.9-3.3-7.6
				C2543.1,2319.3,2540.4,2318.2,2537.7,2318.2L2537.7,2318.2z"/>
		</defs>
		<defs>
			<path id="SVGID_180_" d="M2587.4,2271.8h38.2v14h-26.8l-3.3,14.6c1.1,0,1.6-0.5,2.7-0.5h2.7c7.1,0,13.7,2.7,18.6,7.6
				c4.9,4.9,7.1,11.3,7.1,18.9c0,8.1-2.7,14.6-8.2,20c-5.5,5.4-12,8.1-19.7,8.1c-7.1,0-13.1-2.2-18-5.9c-4.9-3.8-8.2-9.2-9.8-16.2
				h16.4c1.1,2.7,2.7,4.3,4.9,5.9c2.2,1.1,4.4,2.2,6.6,2.2c3.3,0,6.6-1.1,8.7-3.8c2.2-2.2,3.8-5.4,3.8-9.2c0-3.8-1.1-6.5-3.3-9.2
				c-2.2-2.2-4.9-3.8-8.2-3.8c-1.6,0-3.3,0.5-4.9,1.1c-1.6,1.1-3.3,2.2-4.9,3.8l-12.6-2.7L2587.4,2271.8L2587.4,2271.8z"/>
		</defs>
		<use xlink:href="#SVGID_3_"  style="overflow:visible;fill:#C4B359;"/>
		<use xlink:href="#SVGID_4_"  style="overflow:visible;fill:#C4B359;"/>
		<use xlink:href="#SVGID_5_"  style="overflow:visible;fill:#C4B359;"/>
		<use xlink:href="#SVGID_6_"  style="overflow:visible;fill:#C4B359;"/>
		<use xlink:href="#SVGID_7_"  style="overflow:visible;fill:#C4B359;"/>
		<use xlink:href="#SVGID_8_"  style="overflow:visible;fill:#C4B359;"/>
		<use xlink:href="#SVGID_9_"  style="overflow:visible;fill:#C4B359;"/>
		<use xlink:href="#SVGID_10_"  style="overflow:visible;fill:#C4B359;"/>
		<use xlink:href="#SVGID_11_"  style="overflow:visible;fill:#C4B359;"/>
		<use xlink:href="#SVGID_12_"  style="overflow:visible;fill:#C4B359;"/>
		<use xlink:href="#SVGID_13_"  style="overflow:visible;fill:#C4B359;"/>
		<use xlink:href="#SVGID_14_"  style="overflow:visible;fill:#C4B359;"/>
		<use xlink:href="#SVGID_15_"  style="overflow:visible;fill:#C4B359;"/>
		<use xlink:href="#SVGID_16_"  style="overflow:visible;fill:#C4B359;"/>
		<use xlink:href="#SVGID_17_"  style="overflow:visible;fill:#C4B359;"/>
		<use xlink:href="#SVGID_18_"  style="overflow:visible;fill:#C4B359;"/>
		<use xlink:href="#SVGID_19_"  style="overflow:visible;fill:#C4B359;"/>
		<use xlink:href="#SVGID_20_"  style="overflow:visible;fill:#C4B359;"/>
		<use xlink:href="#SVGID_21_"  style="overflow:visible;fill:#C4B359;"/>
		<use xlink:href="#SVGID_22_"  style="overflow:visible;fill:#C4B359;"/>
		<use xlink:href="#SVGID_23_"  style="overflow:visible;fill:#C4B359;"/>
		<use xlink:href="#SVGID_24_"  style="overflow:visible;fill:#C4B359;"/>
		<use xlink:href="#SVGID_25_"  style="overflow:visible;fill:#C4B359;"/>
		<use xlink:href="#SVGID_26_"  style="overflow:visible;fill:#C4B359;"/>
		<use xlink:href="#SVGID_27_"  style="overflow:visible;fill:#C4B359;"/>
		<use xlink:href="#SVGID_28_"  style="overflow:visible;fill:#C4B359;"/>
		<use xlink:href="#SVGID_29_"  style="overflow:visible;fill:#C4B359;"/>
		<use xlink:href="#SVGID_30_"  style="overflow:visible;fill:#C4B359;"/>
		<use xlink:href="#SVGID_31_"  style="overflow:visible;fill:#C4B359;"/>
		<use xlink:href="#SVGID_32_"  style="overflow:visible;fill:#C4B359;"/>
		<use xlink:href="#SVGID_33_"  style="overflow:visible;fill:#C4B359;"/>
		<use xlink:href="#SVGID_34_"  style="overflow:visible;fill:#C4B359;"/>
		<use xlink:href="#SVGID_35_"  style="overflow:visible;fill:#C4B359;"/>
		<use xlink:href="#SVGID_36_"  style="overflow:visible;fill:#C4B359;"/>
		<use xlink:href="#SVGID_37_"  style="overflow:visible;fill:#C4B359;"/>
		<use xlink:href="#SVGID_38_"  style="overflow:visible;fill:#C4B359;"/>
		<use xlink:href="#SVGID_39_"  style="overflow:visible;fill:#C4B359;"/>
		<use xlink:href="#SVGID_40_"  style="overflow:visible;fill:#C4B359;"/>
		<use xlink:href="#SVGID_41_"  style="overflow:visible;fill:#C4B359;"/>
		<use xlink:href="#SVGID_42_"  style="overflow:visible;fill:#C4B359;"/>
		<use xlink:href="#SVGID_43_"  style="overflow:visible;fill:#C4B359;"/>
		<use xlink:href="#SVGID_44_"  style="overflow:visible;fill:#C4B359;"/>
		<use xlink:href="#SVGID_45_"  style="overflow:visible;fill:#C4B359;"/>
		<use xlink:href="#SVGID_46_"  style="overflow:visible;fill:#C4B359;"/>
		<use xlink:href="#SVGID_47_"  style="overflow:visible;fill:#C4B359;"/>
		<use xlink:href="#SVGID_48_"  style="overflow:visible;fill:#C4B359;"/>
		<use xlink:href="#SVGID_49_"  style="overflow:visible;fill:#C4B359;"/>
		<use xlink:href="#SVGID_50_"  style="overflow:visible;fill:#C4B359;"/>
		<use xlink:href="#SVGID_51_"  style="overflow:visible;fill:#C4B359;"/>
		<use xlink:href="#SVGID_52_"  style="overflow:visible;fill:#C4B359;"/>
		<use xlink:href="#SVGID_53_"  style="overflow:visible;fill:#C4B359;"/>
		<use xlink:href="#SVGID_54_"  style="overflow:visible;fill:#C4B359;"/>
		<use xlink:href="#SVGID_55_"  style="overflow:visible;fill:#C4B359;"/>
		<use xlink:href="#SVGID_56_"  style="overflow:visible;fill:#C4B359;"/>
		<use xlink:href="#SVGID_57_"  style="overflow:visible;fill:#C4B359;"/>
		<use xlink:href="#SVGID_58_"  style="overflow:visible;fill:#C4B359;"/>
		<use xlink:href="#SVGID_59_"  style="overflow:visible;fill:#C4B359;"/>
		<use xlink:href="#SVGID_60_"  style="overflow:visible;fill:#C4B359;"/>
		<use xlink:href="#SVGID_61_"  style="overflow:visible;fill:#C4B359;"/>
		<use xlink:href="#SVGID_62_"  style="overflow:visible;fill:#C4B359;"/>
		<use xlink:href="#SVGID_63_"  style="overflow:visible;fill:#C4B359;"/>
		<use xlink:href="#SVGID_64_"  style="overflow:visible;fill:#C4B359;"/>
		<use xlink:href="#SVGID_65_"  style="overflow:visible;fill:#C4B359;"/>
		<use xlink:href="#SVGID_66_"  style="overflow:visible;fill:#C4B359;"/>
		<use xlink:href="#SVGID_67_"  style="overflow:visible;fill:#C4B359;"/>
		<use xlink:href="#SVGID_68_"  style="overflow:visible;fill:#C4B359;"/>
		<use xlink:href="#SVGID_69_"  style="overflow:visible;fill:#C4B359;"/>
		<use xlink:href="#SVGID_70_"  style="overflow:visible;fill:#C4B359;"/>
		<use xlink:href="#SVGID_71_"  style="overflow:visible;fill:#C4B359;"/>
		<use xlink:href="#SVGID_72_"  style="overflow:visible;fill:#C4B359;"/>
		<use xlink:href="#SVGID_73_"  style="overflow:visible;fill:#C4B359;"/>
		<use xlink:href="#SVGID_74_"  style="overflow:visible;fill:#C4B359;"/>
		<use xlink:href="#SVGID_75_"  style="overflow:visible;fill:#C4B359;"/>
		<use xlink:href="#SVGID_76_"  style="overflow:visible;fill:#C4B359;"/>
		<use xlink:href="#SVGID_77_"  style="overflow:visible;fill:#C4B359;"/>
		<use xlink:href="#SVGID_78_"  style="overflow:visible;fill:#C4B359;"/>
		<use xlink:href="#SVGID_79_"  style="overflow:visible;fill:#C4B359;"/>
		<use xlink:href="#SVGID_80_"  style="overflow:visible;fill:#C4B359;"/>
		<use xlink:href="#SVGID_81_"  style="overflow:visible;fill:#C4B359;"/>
		<use xlink:href="#SVGID_82_"  style="overflow:visible;fill:#C4B359;"/>
		<use xlink:href="#SVGID_83_"  style="overflow:visible;fill:#C4B359;"/>
		<use xlink:href="#SVGID_84_"  style="overflow:visible;fill:#C4B359;"/>
		<use xlink:href="#SVGID_85_"  style="overflow:visible;fill:#C4B359;"/>
		<use xlink:href="#SVGID_86_"  style="overflow:visible;fill:#C4B359;"/>
		<use xlink:href="#SVGID_87_"  style="overflow:visible;fill:#C4B359;"/>
		<use xlink:href="#SVGID_88_"  style="overflow:visible;fill:#C4B359;"/>
		<use xlink:href="#SVGID_89_"  style="overflow:visible;fill:#C4B359;"/>
		<use xlink:href="#SVGID_90_"  style="overflow:visible;fill:#C4B359;"/>
		<use xlink:href="#SVGID_91_"  style="overflow:visible;fill:#C4B359;"/>
		<use xlink:href="#SVGID_92_"  style="overflow:visible;fill:#C4B359;"/>
		<use xlink:href="#SVGID_93_"  style="overflow:visible;fill:#C4B359;"/>
		<use xlink:href="#SVGID_94_"  style="overflow:visible;fill:#C4B359;"/>
		<use xlink:href="#SVGID_95_"  style="overflow:visible;fill:#C4B359;"/>
		<use xlink:href="#SVGID_96_"  style="overflow:visible;fill:#C4B359;"/>
		<use xlink:href="#SVGID_97_"  style="overflow:visible;fill:#C4B359;"/>
		<use xlink:href="#SVGID_98_"  style="overflow:visible;fill:#C4B359;"/>
		<use xlink:href="#SVGID_99_"  style="overflow:visible;fill:#C4B359;"/>
		<use xlink:href="#SVGID_100_"  style="overflow:visible;fill:#C4B359;"/>
		<use xlink:href="#SVGID_101_"  style="overflow:visible;fill:#C4B359;"/>
		<use xlink:href="#SVGID_102_"  style="overflow:visible;fill:#C4B359;"/>
		<use xlink:href="#SVGID_103_"  style="overflow:visible;fill:#C4B359;"/>
		<use xlink:href="#SVGID_104_"  style="overflow:visible;fill:#C4B359;"/>
		<use xlink:href="#SVGID_105_"  style="overflow:visible;fill:#C4B359;"/>
		<use xlink:href="#SVGID_106_"  style="overflow:visible;fill:#C4B359;"/>
		<use xlink:href="#SVGID_107_"  style="overflow:visible;fill:#C4B359;"/>
		<use xlink:href="#SVGID_108_"  style="overflow:visible;fill:#C4B359;"/>
		<use xlink:href="#SVGID_109_"  style="overflow:visible;fill:#C4B359;"/>
		<use xlink:href="#SVGID_110_"  style="overflow:visible;fill:#C4B359;"/>
		<use xlink:href="#SVGID_111_"  style="overflow:visible;fill:#C4B359;"/>
		<use xlink:href="#SVGID_112_"  style="overflow:visible;fill:#C4B359;"/>
		<use xlink:href="#SVGID_113_"  style="overflow:visible;fill:#C4B359;"/>
		<use xlink:href="#SVGID_114_"  style="overflow:visible;fill:#C4B359;"/>
		<use xlink:href="#SVGID_115_"  style="overflow:visible;fill:#C4B359;"/>
		<use xlink:href="#SVGID_116_"  style="overflow:visible;fill:#C4B359;"/>
		<use xlink:href="#SVGID_117_"  style="overflow:visible;fill:#C4B359;"/>
		<use xlink:href="#SVGID_118_"  style="overflow:visible;fill:#C4B359;"/>
		<use xlink:href="#SVGID_119_"  style="overflow:visible;fill:#C4B359;"/>
		<use xlink:href="#SVGID_120_"  style="overflow:visible;fill:#C4B359;"/>
		<use xlink:href="#SVGID_121_"  style="overflow:visible;fill:#C4B359;"/>
		<use xlink:href="#SVGID_122_"  style="overflow:visible;fill:#C4B359;"/>
		<use xlink:href="#SVGID_123_"  style="overflow:visible;fill:#C4B359;"/>
		<use xlink:href="#SVGID_124_"  style="overflow:visible;fill:#C4B359;"/>
		<use xlink:href="#SVGID_125_"  style="overflow:visible;fill:#C4B359;"/>
		<use xlink:href="#SVGID_126_"  style="overflow:visible;fill:#C4B359;"/>
		<use xlink:href="#SVGID_127_"  style="overflow:visible;fill:#C4B359;"/>
		<use xlink:href="#SVGID_128_"  style="overflow:visible;fill:#C4B359;"/>
		<use xlink:href="#SVGID_129_"  style="overflow:visible;fill:#C4B359;"/>
		<use xlink:href="#SVGID_130_"  style="overflow:visible;fill:#C4B359;"/>
		<use xlink:href="#SVGID_131_"  style="overflow:visible;fill:#C4B359;"/>
		<use xlink:href="#SVGID_132_"  style="overflow:visible;fill:#C4B359;"/>
		<use xlink:href="#SVGID_133_"  style="overflow:visible;fill:#C4B359;"/>
		<use xlink:href="#SVGID_134_"  style="overflow:visible;fill:#C4B359;"/>
		<use xlink:href="#SVGID_135_"  style="overflow:visible;fill:#C4B359;"/>
		<use xlink:href="#SVGID_136_"  style="overflow:visible;fill:#C4B359;"/>
		<use xlink:href="#SVGID_137_"  style="overflow:visible;fill:#C4B359;"/>
		<use xlink:href="#SVGID_138_"  style="overflow:visible;fill:#C4B359;"/>
		<use xlink:href="#SVGID_139_"  style="overflow:visible;fill:#C4B359;"/>
		<use xlink:href="#SVGID_140_"  style="overflow:visible;fill:#C4B359;"/>
		<use xlink:href="#SVGID_141_"  style="overflow:visible;fill:#C4B359;"/>
		<use xlink:href="#SVGID_142_"  style="overflow:visible;fill:#C4B359;"/>
		<use xlink:href="#SVGID_143_"  style="overflow:visible;fill:#C4B359;"/>
		<use xlink:href="#SVGID_144_"  style="overflow:visible;fill:#C4B359;"/>
		<use xlink:href="#SVGID_145_"  style="overflow:visible;fill:#C4B359;"/>
		<use xlink:href="#SVGID_146_"  style="overflow:visible;fill:#C4B359;"/>
		<use xlink:href="#SVGID_147_"  style="overflow:visible;fill:#C4B359;"/>
		<use xlink:href="#SVGID_148_"  style="overflow:visible;fill:#C4B359;"/>
		<use xlink:href="#SVGID_149_"  style="overflow:visible;fill:#C4B359;"/>
		<use xlink:href="#SVGID_150_"  style="overflow:visible;fill:#C4B359;"/>
		<use xlink:href="#SVGID_151_"  style="overflow:visible;fill:#C4B359;"/>
		<use xlink:href="#SVGID_152_"  style="overflow:visible;fill:#C4B359;"/>
		<use xlink:href="#SVGID_153_"  style="overflow:visible;fill:#C4B359;"/>
		<use xlink:href="#SVGID_154_"  style="overflow:visible;fill:#C4B359;"/>
		<use xlink:href="#SVGID_155_"  style="overflow:visible;fill:#C4B359;"/>
		<use xlink:href="#SVGID_156_"  style="overflow:visible;fill:#C4B359;"/>
		<use xlink:href="#SVGID_157_"  style="overflow:visible;fill:#C4B359;"/>
		<use xlink:href="#SVGID_158_"  style="overflow:visible;fill:#C4B359;"/>
		<use xlink:href="#SVGID_159_"  style="overflow:visible;fill:#C4B359;"/>
		<use xlink:href="#SVGID_160_"  style="overflow:visible;fill:#C4B359;"/>
		<use xlink:href="#SVGID_161_"  style="overflow:visible;fill:#C4B359;"/>
		<use xlink:href="#SVGID_162_"  style="overflow:visible;fill:#C4B359;"/>
		<use xlink:href="#SVGID_163_"  style="overflow:visible;fill:#C4B359;"/>
		<use xlink:href="#SVGID_164_"  style="overflow:visible;fill:#C4B359;"/>
		<use xlink:href="#SVGID_165_"  style="overflow:visible;fill:#C4B359;"/>
		<use xlink:href="#SVGID_166_"  style="overflow:visible;fill:#C4B359;"/>
		<use xlink:href="#SVGID_167_"  style="overflow:visible;fill:#C4B359;"/>
		<use xlink:href="#SVGID_168_"  style="overflow:visible;fill:#C4B359;"/>
		<use xlink:href="#SVGID_169_"  style="overflow:visible;fill:#C4B359;"/>
		<use xlink:href="#SVGID_170_"  style="overflow:visible;fill:#C4B359;"/>
		<use xlink:href="#SVGID_171_"  style="overflow:visible;fill:#C4B359;"/>
		<use xlink:href="#SVGID_172_"  style="overflow:visible;fill:#C4B359;"/>
		<use xlink:href="#SVGID_173_"  style="overflow:visible;fill:#C4B359;"/>
		<use xlink:href="#SVGID_174_"  style="overflow:visible;fill:#C4B359;"/>
		<use xlink:href="#SVGID_175_"  style="overflow:visible;fill:#C4B359;"/>
		<use xlink:href="#SVGID_176_"  style="overflow:visible;fill:#C4B359;"/>
		<use xlink:href="#SVGID_177_"  style="overflow:visible;fill:#C4B359;"/>
		<use xlink:href="#SVGID_178_"  style="overflow:visible;fill:#C4B359;"/>
		<use xlink:href="#SVGID_179_"  style="overflow:visible;fill:#C4B359;"/>
		<use xlink:href="#SVGID_180_"  style="overflow:visible;fill:#C4B359;"/>
		<clipPath id="SVGID_181_">
			<use xlink:href="#SVGID_3_"  style="overflow:visible;"/>
		</clipPath>
		<clipPath id="SVGID_182_" class="st0">
			<use xlink:href="#SVGID_4_"  style="overflow:visible;"/>
		</clipPath>
		<clipPath id="SVGID_183_" class="st1">
			<use xlink:href="#SVGID_5_"  style="overflow:visible;"/>
		</clipPath>
		<clipPath id="SVGID_184_" class="st2">
			<use xlink:href="#SVGID_6_"  style="overflow:visible;"/>
		</clipPath>
		<clipPath id="SVGID_185_" class="st3">
			<use xlink:href="#SVGID_7_"  style="overflow:visible;"/>
		</clipPath>
		<clipPath id="SVGID_186_" class="st4">
			<use xlink:href="#SVGID_8_"  style="overflow:visible;"/>
		</clipPath>
		<clipPath id="SVGID_187_" class="st5">
			<use xlink:href="#SVGID_9_"  style="overflow:visible;"/>
		</clipPath>
		<clipPath id="SVGID_188_" class="st6">
			<use xlink:href="#SVGID_10_"  style="overflow:visible;"/>
		</clipPath>
		<clipPath id="SVGID_189_" class="st7">
			<use xlink:href="#SVGID_11_"  style="overflow:visible;"/>
		</clipPath>
		<clipPath id="SVGID_190_" class="st8">
			<use xlink:href="#SVGID_12_"  style="overflow:visible;"/>
		</clipPath>
		<clipPath id="SVGID_191_" class="st9">
			<use xlink:href="#SVGID_13_"  style="overflow:visible;"/>
		</clipPath>
		<clipPath id="SVGID_192_" class="st10">
			<use xlink:href="#SVGID_14_"  style="overflow:visible;"/>
		</clipPath>
		<clipPath id="SVGID_193_" class="st11">
			<use xlink:href="#SVGID_15_"  style="overflow:visible;"/>
		</clipPath>
		<clipPath id="SVGID_194_" class="st12">
			<use xlink:href="#SVGID_16_"  style="overflow:visible;"/>
		</clipPath>
		<clipPath id="SVGID_195_" class="st13">
			<use xlink:href="#SVGID_17_"  style="overflow:visible;"/>
		</clipPath>
		<clipPath id="SVGID_196_" class="st14">
			<use xlink:href="#SVGID_18_"  style="overflow:visible;"/>
		</clipPath>
		<clipPath id="SVGID_197_" class="st15">
			<use xlink:href="#SVGID_19_"  style="overflow:visible;"/>
		</clipPath>
		<clipPath id="SVGID_198_" class="st16">
			<use xlink:href="#SVGID_20_"  style="overflow:visible;"/>
		</clipPath>
		<clipPath id="SVGID_199_" class="st17">
			<use xlink:href="#SVGID_21_"  style="overflow:visible;"/>
		</clipPath>
		<clipPath id="SVGID_200_" class="st18">
			<use xlink:href="#SVGID_22_"  style="overflow:visible;"/>
		</clipPath>
		<clipPath id="SVGID_201_" class="st19">
			<use xlink:href="#SVGID_23_"  style="overflow:visible;"/>
		</clipPath>
		<clipPath id="SVGID_202_" class="st20">
			<use xlink:href="#SVGID_24_"  style="overflow:visible;"/>
		</clipPath>
		<clipPath id="SVGID_203_" class="st21">
			<use xlink:href="#SVGID_25_"  style="overflow:visible;"/>
		</clipPath>
		<clipPath id="SVGID_204_" class="st22">
			<use xlink:href="#SVGID_26_"  style="overflow:visible;"/>
		</clipPath>
		<clipPath id="SVGID_205_" class="st23">
			<use xlink:href="#SVGID_27_"  style="overflow:visible;"/>
		</clipPath>
		<clipPath id="SVGID_206_" class="st24">
			<use xlink:href="#SVGID_28_"  style="overflow:visible;"/>
		</clipPath>
		<clipPath id="SVGID_207_" class="st25">
			<use xlink:href="#SVGID_29_"  style="overflow:visible;"/>
		</clipPath>
		<clipPath id="SVGID_208_" class="st26">
			<use xlink:href="#SVGID_30_"  style="overflow:visible;"/>
		</clipPath>
		<clipPath id="SVGID_209_" class="st27">
			<use xlink:href="#SVGID_31_"  style="overflow:visible;"/>
		</clipPath>
		<clipPath id="SVGID_210_" class="st28">
			<use xlink:href="#SVGID_32_"  style="overflow:visible;"/>
		</clipPath>
		<clipPath id="SVGID_211_" class="st29">
			<use xlink:href="#SVGID_33_"  style="overflow:visible;"/>
		</clipPath>
		<clipPath id="SVGID_212_" class="st30">
			<use xlink:href="#SVGID_34_"  style="overflow:visible;"/>
		</clipPath>
		<clipPath id="SVGID_213_" class="st31">
			<use xlink:href="#SVGID_35_"  style="overflow:visible;"/>
		</clipPath>
		<clipPath id="SVGID_214_" class="st32">
			<use xlink:href="#SVGID_36_"  style="overflow:visible;"/>
		</clipPath>
		<clipPath id="SVGID_215_" class="st33">
			<use xlink:href="#SVGID_37_"  style="overflow:visible;"/>
		</clipPath>
		<clipPath id="SVGID_216_" class="st34">
			<use xlink:href="#SVGID_38_"  style="overflow:visible;"/>
		</clipPath>
		<clipPath id="SVGID_217_" class="st35">
			<use xlink:href="#SVGID_39_"  style="overflow:visible;"/>
		</clipPath>
		<clipPath id="SVGID_218_" class="st36">
			<use xlink:href="#SVGID_40_"  style="overflow:visible;"/>
		</clipPath>
		<clipPath id="SVGID_219_" class="st37">
			<use xlink:href="#SVGID_41_"  style="overflow:visible;"/>
		</clipPath>
		<clipPath id="SVGID_220_" class="st38">
			<use xlink:href="#SVGID_42_"  style="overflow:visible;"/>
		</clipPath>
		<clipPath id="SVGID_221_" class="st39">
			<use xlink:href="#SVGID_43_"  style="overflow:visible;"/>
		</clipPath>
		<clipPath id="SVGID_222_" class="st40">
			<use xlink:href="#SVGID_44_"  style="overflow:visible;"/>
		</clipPath>
		<clipPath id="SVGID_223_" class="st41">
			<use xlink:href="#SVGID_45_"  style="overflow:visible;"/>
		</clipPath>
		<clipPath id="SVGID_224_" class="st42">
			<use xlink:href="#SVGID_46_"  style="overflow:visible;"/>
		</clipPath>
		<clipPath id="SVGID_225_" class="st43">
			<use xlink:href="#SVGID_47_"  style="overflow:visible;"/>
		</clipPath>
		<clipPath id="SVGID_226_" class="st44">
			<use xlink:href="#SVGID_48_"  style="overflow:visible;"/>
		</clipPath>
		<clipPath id="SVGID_227_" class="st45">
			<use xlink:href="#SVGID_49_"  style="overflow:visible;"/>
		</clipPath>
		<clipPath id="SVGID_228_" class="st46">
			<use xlink:href="#SVGID_50_"  style="overflow:visible;"/>
		</clipPath>
		<clipPath id="SVGID_229_" class="st47">
			<use xlink:href="#SVGID_51_"  style="overflow:visible;"/>
		</clipPath>
		<clipPath id="SVGID_230_" class="st48">
			<use xlink:href="#SVGID_52_"  style="overflow:visible;"/>
		</clipPath>
		<clipPath id="SVGID_231_" class="st49">
			<use xlink:href="#SVGID_53_"  style="overflow:visible;"/>
		</clipPath>
		<clipPath id="SVGID_232_" class="st50">
			<use xlink:href="#SVGID_54_"  style="overflow:visible;"/>
		</clipPath>
		<clipPath id="SVGID_233_" class="st51">
			<use xlink:href="#SVGID_55_"  style="overflow:visible;"/>
		</clipPath>
		<clipPath id="SVGID_234_" class="st52">
			<use xlink:href="#SVGID_56_"  style="overflow:visible;"/>
		</clipPath>
		<clipPath id="SVGID_235_" class="st53">
			<use xlink:href="#SVGID_57_"  style="overflow:visible;"/>
		</clipPath>
		<clipPath id="SVGID_236_" class="st54">
			<use xlink:href="#SVGID_58_"  style="overflow:visible;"/>
		</clipPath>
		<clipPath id="SVGID_237_" class="st55">
			<use xlink:href="#SVGID_59_"  style="overflow:visible;"/>
		</clipPath>
		<clipPath id="SVGID_238_" class="st56">
			<use xlink:href="#SVGID_60_"  style="overflow:visible;"/>
		</clipPath>
		<clipPath id="SVGID_239_" class="st57">
			<use xlink:href="#SVGID_61_"  style="overflow:visible;"/>
		</clipPath>
		<clipPath id="SVGID_240_" class="st58">
			<use xlink:href="#SVGID_62_"  style="overflow:visible;"/>
		</clipPath>
		<clipPath id="SVGID_241_" class="st59">
			<use xlink:href="#SVGID_63_"  style="overflow:visible;"/>
		</clipPath>
		<clipPath id="SVGID_242_" class="st60">
			<use xlink:href="#SVGID_64_"  style="overflow:visible;"/>
		</clipPath>
		<clipPath id="SVGID_243_" class="st61">
			<use xlink:href="#SVGID_65_"  style="overflow:visible;"/>
		</clipPath>
		<clipPath id="SVGID_244_" class="st62">
			<use xlink:href="#SVGID_66_"  style="overflow:visible;"/>
		</clipPath>
		<clipPath id="SVGID_245_" class="st63">
			<use xlink:href="#SVGID_67_"  style="overflow:visible;"/>
		</clipPath>
		<clipPath id="SVGID_246_" class="st64">
			<use xlink:href="#SVGID_68_"  style="overflow:visible;"/>
		</clipPath>
		<clipPath id="SVGID_247_" class="st65">
			<use xlink:href="#SVGID_69_"  style="overflow:visible;"/>
		</clipPath>
		<clipPath id="SVGID_248_" class="st66">
			<use xlink:href="#SVGID_70_"  style="overflow:visible;"/>
		</clipPath>
		<clipPath id="SVGID_249_" class="st67">
			<use xlink:href="#SVGID_71_"  style="overflow:visible;"/>
		</clipPath>
		<clipPath id="SVGID_250_" class="st68">
			<use xlink:href="#SVGID_72_"  style="overflow:visible;"/>
		</clipPath>
		<clipPath id="SVGID_251_" class="st69">
			<use xlink:href="#SVGID_73_"  style="overflow:visible;"/>
		</clipPath>
		<clipPath id="SVGID_252_" class="st70">
			<use xlink:href="#SVGID_74_"  style="overflow:visible;"/>
		</clipPath>
		<clipPath id="SVGID_253_" class="st71">
			<use xlink:href="#SVGID_75_"  style="overflow:visible;"/>
		</clipPath>
		<clipPath id="SVGID_254_" class="st72">
			<use xlink:href="#SVGID_76_"  style="overflow:visible;"/>
		</clipPath>
		<clipPath id="SVGID_255_" class="st73">
			<use xlink:href="#SVGID_77_"  style="overflow:visible;"/>
		</clipPath>
		<clipPath id="SVGID_256_" class="st74">
			<use xlink:href="#SVGID_78_"  style="overflow:visible;"/>
		</clipPath>
		<clipPath id="SVGID_257_" class="st75">
			<use xlink:href="#SVGID_79_"  style="overflow:visible;"/>
		</clipPath>
		<clipPath id="SVGID_258_" class="st76">
			<use xlink:href="#SVGID_80_"  style="overflow:visible;"/>
		</clipPath>
		<clipPath id="SVGID_259_" class="st77">
			<use xlink:href="#SVGID_81_"  style="overflow:visible;"/>
		</clipPath>
		<clipPath id="SVGID_260_" class="st78">
			<use xlink:href="#SVGID_82_"  style="overflow:visible;"/>
		</clipPath>
		<clipPath id="SVGID_261_" class="st79">
			<use xlink:href="#SVGID_83_"  style="overflow:visible;"/>
		</clipPath>
		<clipPath id="SVGID_262_" class="st80">
			<use xlink:href="#SVGID_84_"  style="overflow:visible;"/>
		</clipPath>
		<clipPath id="SVGID_263_" class="st81">
			<use xlink:href="#SVGID_85_"  style="overflow:visible;"/>
		</clipPath>
		<clipPath id="SVGID_264_" class="st82">
			<use xlink:href="#SVGID_86_"  style="overflow:visible;"/>
		</clipPath>
		<clipPath id="SVGID_265_" class="st83">
			<use xlink:href="#SVGID_87_"  style="overflow:visible;"/>
		</clipPath>
		<clipPath id="SVGID_266_" class="st84">
			<use xlink:href="#SVGID_88_"  style="overflow:visible;"/>
		</clipPath>
		<clipPath id="SVGID_267_" class="st85">
			<use xlink:href="#SVGID_89_"  style="overflow:visible;"/>
		</clipPath>
		<clipPath id="SVGID_268_" class="st86">
			<use xlink:href="#SVGID_90_"  style="overflow:visible;"/>
		</clipPath>
		<clipPath id="SVGID_269_" class="st87">
			<use xlink:href="#SVGID_91_"  style="overflow:visible;"/>
		</clipPath>
		<clipPath id="SVGID_270_" class="st88">
			<use xlink:href="#SVGID_92_"  style="overflow:visible;"/>
		</clipPath>
		<clipPath id="SVGID_271_" class="st89">
			<use xlink:href="#SVGID_93_"  style="overflow:visible;"/>
		</clipPath>
		<clipPath id="SVGID_272_" class="st90">
			<use xlink:href="#SVGID_94_"  style="overflow:visible;"/>
		</clipPath>
		<clipPath id="SVGID_273_" class="st91">
			<use xlink:href="#SVGID_95_"  style="overflow:visible;"/>
		</clipPath>
		<clipPath id="SVGID_274_" class="st92">
			<use xlink:href="#SVGID_96_"  style="overflow:visible;"/>
		</clipPath>
		<clipPath id="SVGID_275_" class="st93">
			<use xlink:href="#SVGID_97_"  style="overflow:visible;"/>
		</clipPath>
		<clipPath id="SVGID_276_" class="st94">
			<use xlink:href="#SVGID_98_"  style="overflow:visible;"/>
		</clipPath>
		<clipPath id="SVGID_277_" class="st95">
			<use xlink:href="#SVGID_99_"  style="overflow:visible;"/>
		</clipPath>
		<clipPath id="SVGID_278_" class="st96">
			<use xlink:href="#SVGID_100_"  style="overflow:visible;"/>
		</clipPath>
		<clipPath id="SVGID_279_" class="st97">
			<use xlink:href="#SVGID_101_"  style="overflow:visible;"/>
		</clipPath>
		<clipPath id="SVGID_280_" class="st98">
			<use xlink:href="#SVGID_102_"  style="overflow:visible;"/>
		</clipPath>
		<clipPath id="SVGID_281_" class="st99">
			<use xlink:href="#SVGID_103_"  style="overflow:visible;"/>
		</clipPath>
		<clipPath id="SVGID_282_" class="st100">
			<use xlink:href="#SVGID_104_"  style="overflow:visible;"/>
		</clipPath>
		<clipPath id="SVGID_283_" class="st101">
			<use xlink:href="#SVGID_105_"  style="overflow:visible;"/>
		</clipPath>
		<clipPath id="SVGID_284_" class="st102">
			<use xlink:href="#SVGID_106_"  style="overflow:visible;"/>
		</clipPath>
		<clipPath id="SVGID_285_" class="st103">
			<use xlink:href="#SVGID_107_"  style="overflow:visible;"/>
		</clipPath>
		<clipPath id="SVGID_286_" class="st104">
			<use xlink:href="#SVGID_108_"  style="overflow:visible;"/>
		</clipPath>
		<clipPath id="SVGID_287_" class="st105">
			<use xlink:href="#SVGID_109_"  style="overflow:visible;"/>
		</clipPath>
		<clipPath id="SVGID_288_" class="st106">
			<use xlink:href="#SVGID_110_"  style="overflow:visible;"/>
		</clipPath>
		<clipPath id="SVGID_289_" class="st107">
			<use xlink:href="#SVGID_111_"  style="overflow:visible;"/>
		</clipPath>
		<clipPath id="SVGID_290_" class="st108">
			<use xlink:href="#SVGID_112_"  style="overflow:visible;"/>
		</clipPath>
		<clipPath id="SVGID_291_" class="st109">
			<use xlink:href="#SVGID_113_"  style="overflow:visible;"/>
		</clipPath>
		<clipPath id="SVGID_292_" class="st110">
			<use xlink:href="#SVGID_114_"  style="overflow:visible;"/>
		</clipPath>
		<clipPath id="SVGID_293_" class="st111">
			<use xlink:href="#SVGID_115_"  style="overflow:visible;"/>
		</clipPath>
		<clipPath id="SVGID_294_" class="st112">
			<use xlink:href="#SVGID_116_"  style="overflow:visible;"/>
		</clipPath>
		<clipPath id="SVGID_295_" class="st113">
			<use xlink:href="#SVGID_117_"  style="overflow:visible;"/>
		</clipPath>
		<clipPath id="SVGID_296_" class="st114">
			<use xlink:href="#SVGID_118_"  style="overflow:visible;"/>
		</clipPath>
		<clipPath id="SVGID_297_" class="st115">
			<use xlink:href="#SVGID_119_"  style="overflow:visible;"/>
		</clipPath>
		<clipPath id="SVGID_298_" class="st116">
			<use xlink:href="#SVGID_120_"  style="overflow:visible;"/>
		</clipPath>
		<clipPath id="SVGID_299_" class="st117">
			<use xlink:href="#SVGID_121_"  style="overflow:visible;"/>
		</clipPath>
		<clipPath id="SVGID_300_" class="st118">
			<use xlink:href="#SVGID_122_"  style="overflow:visible;"/>
		</clipPath>
		<clipPath id="SVGID_301_" class="st119">
			<use xlink:href="#SVGID_123_"  style="overflow:visible;"/>
		</clipPath>
		<clipPath id="SVGID_302_" class="st120">
			<use xlink:href="#SVGID_124_"  style="overflow:visible;"/>
		</clipPath>
		<clipPath id="SVGID_303_" class="st121">
			<use xlink:href="#SVGID_125_"  style="overflow:visible;"/>
		</clipPath>
		<clipPath id="SVGID_304_" class="st122">
			<use xlink:href="#SVGID_126_"  style="overflow:visible;"/>
		</clipPath>
		<clipPath id="SVGID_305_" class="st123">
			<use xlink:href="#SVGID_127_"  style="overflow:visible;"/>
		</clipPath>
		<clipPath id="SVGID_306_" class="st124">
			<use xlink:href="#SVGID_128_"  style="overflow:visible;"/>
		</clipPath>
		<clipPath id="SVGID_307_" class="st125">
			<use xlink:href="#SVGID_129_"  style="overflow:visible;"/>
		</clipPath>
		<clipPath id="SVGID_308_" class="st126">
			<use xlink:href="#SVGID_130_"  style="overflow:visible;"/>
		</clipPath>
		<clipPath id="SVGID_309_" class="st127">
			<use xlink:href="#SVGID_131_"  style="overflow:visible;"/>
		</clipPath>
		<clipPath id="SVGID_310_" class="st128">
			<use xlink:href="#SVGID_132_"  style="overflow:visible;"/>
		</clipPath>
		<clipPath id="SVGID_311_" class="st129">
			<use xlink:href="#SVGID_133_"  style="overflow:visible;"/>
		</clipPath>
		<clipPath id="SVGID_312_" class="st130">
			<use xlink:href="#SVGID_134_"  style="overflow:visible;"/>
		</clipPath>
		<clipPath id="SVGID_313_" class="st131">
			<use xlink:href="#SVGID_135_"  style="overflow:visible;"/>
		</clipPath>
		<clipPath id="SVGID_314_" class="st132">
			<use xlink:href="#SVGID_136_"  style="overflow:visible;"/>
		</clipPath>
		<clipPath id="SVGID_315_" class="st133">
			<use xlink:href="#SVGID_137_"  style="overflow:visible;"/>
		</clipPath>
		<clipPath id="SVGID_316_" class="st134">
			<use xlink:href="#SVGID_138_"  style="overflow:visible;"/>
		</clipPath>
		<clipPath id="SVGID_317_" class="st135">
			<use xlink:href="#SVGID_139_"  style="overflow:visible;"/>
		</clipPath>
		<clipPath id="SVGID_318_" class="st136">
			<use xlink:href="#SVGID_140_"  style="overflow:visible;"/>
		</clipPath>
		<clipPath id="SVGID_319_" class="st137">
			<use xlink:href="#SVGID_141_"  style="overflow:visible;"/>
		</clipPath>
		<clipPath id="SVGID_320_" class="st138">
			<use xlink:href="#SVGID_142_"  style="overflow:visible;"/>
		</clipPath>
		<clipPath id="SVGID_321_" class="st139">
			<use xlink:href="#SVGID_143_"  style="overflow:visible;"/>
		</clipPath>
		<clipPath id="SVGID_322_" class="st140">
			<use xlink:href="#SVGID_144_"  style="overflow:visible;"/>
		</clipPath>
		<clipPath id="SVGID_323_" class="st141">
			<use xlink:href="#SVGID_145_"  style="overflow:visible;"/>
		</clipPath>
		<clipPath id="SVGID_324_" class="st142">
			<use xlink:href="#SVGID_146_"  style="overflow:visible;"/>
		</clipPath>
		<clipPath id="SVGID_325_" class="st143">
			<use xlink:href="#SVGID_147_"  style="overflow:visible;"/>
		</clipPath>
		<clipPath id="SVGID_326_" class="st144">
			<use xlink:href="#SVGID_148_"  style="overflow:visible;"/>
		</clipPath>
		<clipPath id="SVGID_327_" class="st145">
			<use xlink:href="#SVGID_149_"  style="overflow:visible;"/>
		</clipPath>
		<clipPath id="SVGID_328_" class="st146">
			<use xlink:href="#SVGID_150_"  style="overflow:visible;"/>
		</clipPath>
		<clipPath id="SVGID_329_" class="st147">
			<use xlink:href="#SVGID_151_"  style="overflow:visible;"/>
		</clipPath>
		<clipPath id="SVGID_330_" class="st148">
			<use xlink:href="#SVGID_152_"  style="overflow:visible;"/>
		</clipPath>
		<clipPath id="SVGID_331_" class="st149">
			<use xlink:href="#SVGID_153_"  style="overflow:visible;"/>
		</clipPath>
		<clipPath id="SVGID_332_" class="st150">
			<use xlink:href="#SVGID_154_"  style="overflow:visible;"/>
		</clipPath>
		<clipPath id="SVGID_333_" class="st151">
			<use xlink:href="#SVGID_155_"  style="overflow:visible;"/>
		</clipPath>
		<clipPath id="SVGID_334_" class="st152">
			<use xlink:href="#SVGID_156_"  style="overflow:visible;"/>
		</clipPath>
		<clipPath id="SVGID_335_" class="st153">
			<use xlink:href="#SVGID_157_"  style="overflow:visible;"/>
		</clipPath>
		<clipPath id="SVGID_336_" class="st154">
			<use xlink:href="#SVGID_158_"  style="overflow:visible;"/>
		</clipPath>
		<clipPath id="SVGID_337_" class="st155">
			<use xlink:href="#SVGID_159_"  style="overflow:visible;"/>
		</clipPath>
		<clipPath id="SVGID_338_" class="st156">
			<use xlink:href="#SVGID_160_"  style="overflow:visible;"/>
		</clipPath>
		<clipPath id="SVGID_339_" class="st157">
			<use xlink:href="#SVGID_161_"  style="overflow:visible;"/>
		</clipPath>
		<clipPath id="SVGID_340_" class="st158">
			<use xlink:href="#SVGID_162_"  style="overflow:visible;"/>
		</clipPath>
		<clipPath id="SVGID_341_" class="st159">
			<use xlink:href="#SVGID_163_"  style="overflow:visible;"/>
		</clipPath>
		<clipPath id="SVGID_342_" class="st160">
			<use xlink:href="#SVGID_164_"  style="overflow:visible;"/>
		</clipPath>
		<clipPath id="SVGID_343_" class="st161">
			<use xlink:href="#SVGID_165_"  style="overflow:visible;"/>
		</clipPath>
		<clipPath id="SVGID_344_" class="st162">
			<use xlink:href="#SVGID_166_"  style="overflow:visible;"/>
		</clipPath>
		<clipPath id="SVGID_345_" class="st163">
			<use xlink:href="#SVGID_167_"  style="overflow:visible;"/>
		</clipPath>
		<clipPath id="SVGID_346_" class="st164">
			<use xlink:href="#SVGID_168_"  style="overflow:visible;"/>
		</clipPath>
		<clipPath id="SVGID_347_" class="st165">
			<use xlink:href="#SVGID_169_"  style="overflow:visible;"/>
		</clipPath>
		<clipPath id="SVGID_348_" class="st166">
			<use xlink:href="#SVGID_170_"  style="overflow:visible;"/>
		</clipPath>
		<clipPath id="SVGID_349_" class="st167">
			<use xlink:href="#SVGID_171_"  style="overflow:visible;"/>
		</clipPath>
		<clipPath id="SVGID_350_" class="st168">
			<use xlink:href="#SVGID_172_"  style="overflow:visible;"/>
		</clipPath>
		<clipPath id="SVGID_351_" class="st169">
			<use xlink:href="#SVGID_173_"  style="overflow:visible;"/>
		</clipPath>
		<clipPath id="SVGID_352_" class="st170">
			<use xlink:href="#SVGID_174_"  style="overflow:visible;"/>
		</clipPath>
		<clipPath id="SVGID_353_" class="st171">
			<use xlink:href="#SVGID_175_"  style="overflow:visible;"/>
		</clipPath>
		<clipPath id="SVGID_354_" class="st172">
			<use xlink:href="#SVGID_176_"  style="overflow:visible;"/>
		</clipPath>
		<clipPath id="SVGID_355_" class="st173">
			<use xlink:href="#SVGID_177_"  style="overflow:visible;"/>
		</clipPath>
		<clipPath id="SVGID_356_" class="st174">
			<use xlink:href="#SVGID_178_"  style="overflow:visible;"/>
		</clipPath>
		<clipPath id="SVGID_357_" class="st175">
			<use xlink:href="#SVGID_179_"  style="overflow:visible;"/>
		</clipPath>
		<clipPath id="SVGID_358_" class="st176">
			<use xlink:href="#SVGID_180_"  style="overflow:visible;"/>
		</clipPath>
	</g>
	<g>
		<defs>
			<polygon id="SVGID_359_" points="1625.3,2355 1886,1211 1639,1211 1493.2,2006.8 1328.5,1211 1148.4,1211 985.5,2006.8 838,1211 
				591,1211 851.7,2355 1091.8,2355 1237.6,1593.4 1385.1,2355 1625.3,2355 			"/>
		</defs>
		<use xlink:href="#SVGID_359_"  style="overflow:visible;fill:#FFFFFF;"/>
		<clipPath id="SVGID_360_">
			<use xlink:href="#SVGID_359_"  style="overflow:visible;"/>
		</clipPath>
	</g>
</g>
</svg>
