<?xml version="1.0" encoding="iso-8859-1"?>
<!-- Generator: Adobe Illustrator 19.0.0, SVG Export Plug-In . SVG Version: 6.00 Build 0)  -->
<svg version="1.1" id="Capa_1" xmlns="http://www.w3.org/2000/svg" xmlns:xlink="http://www.w3.org/1999/xlink" x="0px" y="0px"
	 viewBox="0 0 512 512" style="enable-background:new 0 0 512 512;" xml:space="preserve">
<path style="fill:#353535;" d="M512,256c0,39.581-8.986,77.061-25.025,110.519C445.733,452.577,357.804,512,256,512
	c-99.119,0-185.083-56.33-227.621-138.731C10.24,338.139,0,298.256,0,256c0-9.498,0.512-18.871,1.526-28.097
	C15.517,99.736,124.113,0,256,0c102.766,0,191.394,60.562,232.145,147.937C503.453,180.767,512,217.391,512,256z"/>
<g>
	<path style="fill:#FEDE00;" d="M512,256c0,39.581-8.986,77.061-25.025,110.519c-1.944,0.951-3.939,1.849-5.987,2.685
		c-16.165,6.614-33.165,9.091-50.51,9.822c-19.122,0.794-38.066-0.345-56.644-5.277c-11.943-3.177-23.061-8.14-33.029-15.569
		c-1.693-1.254-2.111-2.445-1.672-4.462c8.223-37.836,16.384-75.682,24.566-113.528c6.363-29.466,12.769-58.922,18.996-88.419
		c0.648-3.093,1.745-4.159,4.901-3.929l12.455,0.021c2.132-0.094,2.685,0.533,2.664,2.665c-0.104,12.831-0.052,25.663-0.052,38.504
		c0,34.638-0.021,69.266,0.01,103.905c0.01,5.684,0.554,11.306,3.197,16.499c3.009,5.925,7.858,9.153,14.451,9.216
		c6.583,0.063,11.536-3.041,14.629-8.923c2.811-5.329,3.312-11.128,3.312-17.021c-0.01-47.094,0.021-94.187-0.063-141.281
		c-0.01-2.717,0.449-3.605,3.448-3.594c15.496,0.084,31.002,0.115,46.498,0.104C503.453,180.767,512,217.391,512,256z"/>
	<path style="fill:#FEDE00;" d="M373.671,147.873c-19.145,0.094-69.781,0.196-74.394-0.002c-2.209-0.095-3.008,0.473-3.311,2.84
		c-2.423,18.889-5.038,37.752-7.581,56.625c-2.73,20.275-5.442,40.554-8.17,60.83c-0.947,7.034-1.918,14.065-2.879,21.098
		c-0.618-0.606-0.812-1.214-0.905-1.838c-1.538-10.35-3.07-20.7-4.591-31.053c-5.168-35.161-10.35-70.321-15.454-105.491
		c-0.327-2.253-0.985-3.048-3.466-3.038c-28.788,0.112-57.577,0.109-86.365,0.007c-2.558-0.009-3.286,0.77-3.632,3.212
		c-2.645,18.668-5.449,37.312-8.202,55.966c-3.303,22.381-6.6,44.762-9.908,67.143c-0.742,5.02-1.522,10.034-2.286,15.051
		c-0.659-0.837-0.85-1.646-0.959-2.464c-1.955-14.671-3.885-29.347-5.85-44.016c-4.119-30.743-8.272-61.481-12.348-92.229
		c-0.259-1.952-0.833-2.656-2.947-2.649c-24.919,0.084-49.837,0.079-74.755,0.007c-2.152-0.006-2.689,0.362-2.197,2.608
		c6.936,31.761,13.78,63.542,20.649,95.318c8.978,41.533,17.974,83.06,26.894,124.604c0.471,2.194,1.184,2.972,3.607,2.962
		c30.298-0.109,60.598-0.112,90.896,0.001c2.628,0.009,3.253-0.882,3.574-3.238c2.433-17.836,4.98-35.657,7.524-53.478
		c3.53-24.73,7.084-49.457,10.636-74.184c0.718-4.997,1.468-9.988,2.204-14.983c2.186,11.673,3.891,23.318,5.556,34.97
		c5.158,36.116,10.315,72.232,15.407,108.356c0.286,2.031,1.04,2.544,3.048,2.535c17.934-0.087,35.867-0.05,53.802-0.05
		c12.743,0,25.485,0.013,38.228-0.027c0.878-0.003,2.104,0.615,2.437-1.069c1.422-7.203,3.342-14.303,4.446-21.572
		c0.182-0.523,0.421-1.034,0.537-1.573c14.298-66.163,28.579-132.329,42.914-198.484
		C376.287,148.449,375.973,147.861,373.671,147.873z"/>
</g>
<path style="fill:#FDFDFC;" d="M332.376,350.624c-9.665-10.031-15.033-22.177-17.541-35.719c-1.223-6.602-1.543-13.285-1.546-19.978
	c-0.023-47.827-0.108-145.736-0.156-146.862l60.537-0.191c2.302-0.012,2.615,0.576,2.157,2.695
	c-14.336,66.155-28.617,132.321-42.914,198.484C332.797,349.589,332.558,350.1,332.376,350.624z"/>
<g>
	<path style="fill:#FEDE00;" d="M29.759,373.332c-0.46-0.031-0.92-0.052-1.379-0.063C10.24,338.139,0,298.256,0,256
		c0-9.498,0.512-18.871,1.526-28.097c6.081,28.609,12.163,57.219,18.233,85.817c4.033,18.996,8.035,37.992,12.163,56.957
		C32.402,372.914,31.984,373.478,29.759,373.332z"/>
	<path style="fill:#FEDE00;" d="M61.782,373.292c-6.384,0-6.392,0.002-7.7-6.16c-14.696-69.216-29.39-138.433-44.088-207.648
		c-0.646-3.042-1.277-6.088-2.012-9.107c-0.416-1.707-0.322-2.643,1.876-2.505c2.914,0.182,5.856,0.162,8.772,0.001
		c1.786-0.099,2.441,0.55,2.793,2.24c3.169,15.218,6.411,30.421,9.64,45.628c9.901,46.636,19.805,93.271,29.713,139.906
		c2.507,11.798,5.014,23.596,7.563,35.384c0.342,1.581,0.305,2.52-1.748,2.296C65.005,373.153,63.387,373.292,61.782,373.292z"/>
</g>
<g>
</g>
<g>
</g>
<g>
</g>
<g>
</g>
<g>
</g>
<g>
</g>
<g>
</g>
<g>
</g>
<g>
</g>
<g>
</g>
<g>
</g>
<g>
</g>
<g>
</g>
<g>
</g>
<g>
</g>
</svg>
